<svg xmlns="http://www.w3.org/2000/svg" xmlns:xlink="http://www.w3.org/1999/xlink" contentStyleType="text/css" data-diagram-type="CLASS" height="921px" preserveAspectRatio="none" style="width:2345px;height:921px;background:#FFFFFF;" version="1.1" viewBox="0 0 2345 921" width="2345px" zoomAndPan="magnify"><?plantuml 1.2026.3beta6?><defs/><g><g class="title" data-source-line="15"><text fill="#000000" font-family="sans-serif" font-size="14" font-weight="700" lengthAdjust="spacing" textLength="199.7188" x="1069.3106" y="22.9951">Sprint 2 &#8212; Class Diagram</text><text fill="#000000" font-family="sans-serif" font-size="14" font-weight="700" lengthAdjust="spacing" textLength="384.7402" x="976.7998" y="39.292">Stage 1: Discovery + Stage 2: Feature Definition</text></g><!--cluster Stage 1 Schemas--><g class="cluster" data-qualified-name="Stage 1 Schemas" data-source-line="17" id="ent0002"><path d="M1215.5,75.8937 L1351.9404,75.8937 A3.75,3.75 0 0 1 1354.4404,78.3937 L1361.4404,98.1906 L1601.5,98.1906 A2.5,2.5 0 0 1 1604,100.6906 L1604,196.9537 A2.5,2.5 0 0 1 1601.5,199.4537 L1215.5,199.4537 A2.5,2.5 0 0 1 1213,196.9537 L1213,78.3937 A2.5,2.5 0 0 1 1215.5,75.8937" fill="#F5F5F5" style="stroke:#AAAAAA;stroke-width:1.5;"/><line style="stroke:#AAAAAA;stroke-width:1.5;" x1="1213" x2="1361.4404" y1="98.1906" y2="98.1906"/><text fill="#000000" font-family="sans-serif" font-size="14" font-weight="700" lengthAdjust="spacing" textLength="135.4404" x="1217" y="90.8889">Stage 1 Schemas</text></g><!--cluster Stage 1 Embedded Data--><g class="cluster" data-qualified-name="Stage 1 Embedded Data" data-source-line="29" id="ent0005"><path d="M811.5,277.7537 L1003.0381,277.7537 A3.75,3.75 0 0 1 1005.5381,280.2537 L1012.5381,300.0506 L1350.5,300.0506 A2.5,2.5 0 0 1 1353,302.5506 L1353,695.1138 A2.5,2.5 0 0 1 1350.5,697.6138 L811.5,697.6138 A2.5,2.5 0 0 1 809,695.1138 L809,280.2537 A2.5,2.5 0 0 1 811.5,277.7537" fill="#F5F5F5" style="stroke:#AAAAAA;stroke-width:1.5;"/><line style="stroke:#AAAAAA;stroke-width:1.5;" x1="809" x2="1012.5381" y1="300.0506" y2="300.0506"/><text fill="#000000" font-family="sans-serif" font-size="14" font-weight="700" lengthAdjust="spacing" textLength="190.5381" x="813" y="292.7489">Stage 1 Embedded Data</text></g><!--cluster Stage 2 Schemas + Embedded Data--><g class="cluster" data-qualified-name="Stage 2 Schemas . Embedded Data" data-source-line="63" id="ent0010"><path d="M1379.5,289.9137 L1662.7285,289.9137 A3.75,3.75 0 0 1 1665.2285,292.4137 L1672.2285,312.2106 L2005.5,312.2106 A2.5,2.5 0 0 1 2008,314.7106 L2008,903.8938 A2.5,2.5 0 0 1 2005.5,906.3938 L1379.5,906.3938 A2.5,2.5 0 0 1 1377,903.8938 L1377,292.4137 A2.5,2.5 0 0 1 1379.5,289.9137" fill="#F5F5F5" style="stroke:#AAAAAA;stroke-width:1.5;"/><line style="stroke:#AAAAAA;stroke-width:1.5;" x1="1377" x2="1672.2285" y1="312.2106" y2="312.2106"/><text fill="#000000" font-family="sans-serif" font-size="14" font-weight="700" lengthAdjust="spacing" textLength="282.2285" x="1381" y="304.9089">Stage 2 Schemas + Embedded Data</text></g><!--cluster Services--><g class="cluster" data-qualified-name="Services" data-source-line="102" id="ent0016"><path d="M8.5,59.5938 L76.0342,59.5938 A3.75,3.75 0 0 1 78.5342,62.0938 L85.5342,81.8906 L782.5,81.8906 A2.5,2.5 0 0 1 785,84.3906 L785,443.5737 A2.5,2.5 0 0 1 782.5,446.0737 L8.5,446.0737 A2.5,2.5 0 0 1 6,443.5737 L6,62.0938 A2.5,2.5 0 0 1 8.5,59.5938" fill="#F5F5F5" style="stroke:#AAAAAA;stroke-width:1.5;"/><line style="stroke:#AAAAAA;stroke-width:1.5;" x1="6" x2="85.5342" y1="81.8906" y2="81.8906"/><text fill="#000000" font-family="sans-serif" font-size="14" font-weight="700" lengthAdjust="spacing" textLength="66.5342" x="10" y="74.5889">Services</text></g><!--class Stage1ChatInput--><g class="entity" data-qualified-name="Stage 1 Schemas.Stage1ChatInput" data-source-line="19" id="ent0003"><rect fill="#FFFFFF" height="72.5625" rx="2.5" ry="2.5" style="stroke:#444444;stroke-width:0.5;" width="150.3301" x="1228.83" y="110.8937"/><ellipse cx="1243.83" cy="131.0266" fill="#2E5233" rx="11" ry="11" style="stroke:#E7E7E7;stroke-width:1;"/><path d="M1246.7988,136.6672 Q1246.2206,136.9641 1245.58,137.1047 Q1244.9394,137.2609 1244.2363,137.2609 Q1241.7363,137.2609 1240.4081,135.6203 Q1239.0956,133.9641 1239.0956,130.8391 Q1239.0956,127.7141 1240.4081,126.0578 Q1241.7363,124.4016 1244.2363,124.4016 Q1244.9394,124.4016 1245.58,124.5578 Q1246.2363,124.7141 1246.7988,125.0109 L1246.7988,127.7297 Q1246.1738,127.1516 1245.58,126.8859 Q1244.9863,126.6047 1244.3613,126.6047 Q1243.0175,126.6047 1242.33,127.6828 Q1241.6425,128.7453 1241.6425,130.8391 Q1241.6425,132.9328 1242.33,134.0109 Q1243.0175,135.0734 1244.3613,135.0734 Q1244.9863,135.0734 1245.58,134.8078 Q1246.1738,134.5266 1246.7988,133.9484 L1246.7988,136.6672 Z " fill="#000000"/><text fill="#000000" font-family="sans-serif" font-size="12" font-style="italic" lengthAdjust="spacing" textLength="79.9336" x="1277.0282" y="127.0324">&#171;BaseModel&#187;</text><text fill="#000000" font-family="sans-serif" font-size="14" lengthAdjust="spacing" textLength="118.3301" x="1257.83" y="142.8576">Stage1ChatInput</text><line style="stroke:#444444;stroke-width:0.5;" x1="1229.83" x2="1378.1601" y1="151.1594" y2="151.1594"/><g data-visibility-modifier="PUBLIC_FIELD"><ellipse cx="1239.83" cy="164.8078" fill="none" rx="3" ry="3" style="stroke:#038048;stroke-width:1;"/></g><text fill="#000000" font-family="sans-serif" font-size="14" lengthAdjust="spacing" textLength="95.0742" x="1248.83" y="168.1545">message : str</text><line style="stroke:#444444;stroke-width:0.5;" x1="1229.83" x2="1378.1601" y1="175.4562" y2="175.4562"/></g><!--class Stage1ProceedInput--><g class="entity" data-qualified-name="Stage 1 Schemas.Stage1ProceedInput" data-source-line="23" id="ent0004"><rect fill="#FFFFFF" height="72.5625" rx="2.5" ry="2.5" style="stroke:#444444;stroke-width:0.5;" width="174.1875" x="1413.91" y="110.8937"/><ellipse cx="1428.91" cy="131.0266" fill="#2E5233" rx="11" ry="11" style="stroke:#E7E7E7;stroke-width:1;"/><path d="M1431.8788,136.6672 Q1431.3006,136.9641 1430.66,137.1047 Q1430.0194,137.2609 1429.3163,137.2609 Q1426.8163,137.2609 1425.4881,135.6203 Q1424.1756,133.9641 1424.1756,130.8391 Q1424.1756,127.7141 1425.4881,126.0578 Q1426.8163,124.4016 1429.3163,124.4016 Q1430.0194,124.4016 1430.66,124.5578 Q1431.3163,124.7141 1431.8788,125.0109 L1431.8788,127.7297 Q1431.2538,127.1516 1430.66,126.8859 Q1430.0663,126.6047 1429.4413,126.6047 Q1428.0975,126.6047 1427.41,127.6828 Q1426.7225,128.7453 1426.7225,130.8391 Q1426.7225,132.9328 1427.41,134.0109 Q1428.0975,135.0734 1429.4413,135.0734 Q1430.0663,135.0734 1430.66,134.8078 Q1431.2538,134.5266 1431.8788,133.9484 L1431.8788,136.6672 Z " fill="#000000"/><text fill="#000000" font-family="sans-serif" font-size="12" font-style="italic" lengthAdjust="spacing" textLength="79.9336" x="1474.037" y="127.0324">&#171;BaseModel&#187;</text><text fill="#000000" font-family="sans-serif" font-size="14" lengthAdjust="spacing" textLength="142.1875" x="1442.91" y="142.8576">Stage1ProceedInput</text><line style="stroke:#444444;stroke-width:0.5;" x1="1414.91" x2="1587.0975" y1="151.1594" y2="151.1594"/><g data-visibility-modifier="PUBLIC_FIELD"><ellipse cx="1424.91" cy="164.8078" fill="none" rx="3" ry="3" style="stroke:#038048;stroke-width:1;"/></g><text fill="#000000" font-family="sans-serif" font-size="14" lengthAdjust="spacing" textLength="136.1445" x="1433.91" y="168.1545">force : bool = False</text><line style="stroke:#444444;stroke-width:0.5;" x1="1414.91" x2="1587.0975" y1="175.4562" y2="175.4562"/></g><!--class Stage1Data--><g class="entity" data-qualified-name="Stage 1 Embedded Data.Stage1Data" data-source-line="31" id="ent0006"><rect fill="#FFFFFF" height="129.4844" rx="2.5" ry="2.5" style="stroke:#444444;stroke-width:0.5;" width="318.1201" x="867.94" y="312.7537"/><ellipse cx="981.355" cy="328.7537" fill="#2E5233" rx="11" ry="11" style="stroke:#E7E7E7;stroke-width:1;"/><path d="M984.3238,334.3944 Q983.7457,334.6912 983.105,334.8319 Q982.4644,334.9881 981.7613,334.9881 Q979.2613,334.9881 977.9332,333.3475 Q976.6207,331.6912 976.6207,328.5662 Q976.6207,325.4412 977.9332,323.785 Q979.2613,322.1287 981.7613,322.1287 Q982.4644,322.1287 983.105,322.285 Q983.7613,322.4412 984.3238,322.7381 L984.3238,325.4569 Q983.6988,324.8787 983.105,324.6131 Q982.5113,324.3319 981.8863,324.3319 Q980.5425,324.3319 979.855,325.41 Q979.1675,326.4725 979.1675,328.5662 Q979.1675,330.66 979.855,331.7381 Q980.5425,332.8006 981.8863,332.8006 Q982.5113,332.8006 983.105,332.535 Q983.6988,332.2537 984.3238,331.6756 L984.3238,334.3944 Z " fill="#000000"/><text fill="#000000" font-family="sans-serif" font-size="14" lengthAdjust="spacing" textLength="82.79" x="1001.855" y="333.6004">Stage1Data</text><line style="stroke:#444444;stroke-width:0.5;" x1="868.94" x2="1185.0601" y1="344.7537" y2="344.7537"/><g data-visibility-modifier="PUBLIC_FIELD"><ellipse cx="878.94" cy="358.4022" fill="none" rx="3" ry="3" style="stroke:#038048;stroke-width:1;"/></g><text fill="#000000" font-family="sans-serif" font-size="14" lengthAdjust="spacing" textLength="75.1748" x="887.94" y="361.7489">status : str</text><g data-visibility-modifier="PUBLIC_FIELD"><ellipse cx="878.94" cy="374.6991" fill="none" rx="3" ry="3" style="stroke:#038048;stroke-width:1;"/></g><text fill="#000000" font-family="sans-serif" font-size="14" lengthAdjust="spacing" textLength="228.8809" x="887.94" y="378.0457">chat_history : List[ChatMessage]</text><g data-visibility-modifier="PUBLIC_FIELD"><ellipse cx="878.94" cy="390.9959" fill="none" rx="3" ry="3" style="stroke:#038048;stroke-width:1;"/></g><text fill="#000000" font-family="sans-serif" font-size="14" lengthAdjust="spacing" textLength="157.7939" x="887.94" y="394.3426">readiness_score : float</text><g data-visibility-modifier="PUBLIC_FIELD"><ellipse cx="878.94" cy="407.2928" fill="none" rx="3" ry="3" style="stroke:#038048;stroke-width:1;"/></g><text fill="#000000" font-family="sans-serif" font-size="14" lengthAdjust="spacing" textLength="193.7168" x="887.94" y="410.6395">pillars : Dict[str, PillarEntry]</text><g data-visibility-modifier="PUBLIC_FIELD"><ellipse cx="878.94" cy="423.5897" fill="none" rx="3" ry="3" style="stroke:#038048;stroke-width:1;"/></g><text fill="#000000" font-family="sans-serif" font-size="14" lengthAdjust="spacing" textLength="292.1201" x="887.94" y="426.9364">product_vision_document : Optional[PVD]</text><line style="stroke:#444444;stroke-width:0.5;" x1="868.94" x2="1185.0601" y1="434.2381" y2="434.2381"/></g><!--class ChatMessage--><g class="entity" data-qualified-name="Stage 1 Embedded Data.ChatMessage" data-source-line="39" id="ent0007"><rect fill="#FFFFFF" height="96.8906" rx="2.5" ry="2.5" style="stroke:#444444;stroke-width:0.5;" width="133.6729" x="1203.16" y="543.9837"/><ellipse cx="1221.5785" cy="559.9837" fill="#2E5233" rx="11" ry="11" style="stroke:#E7E7E7;stroke-width:1;"/><path d="M1224.5473,565.6244 Q1223.9691,565.9212 1223.3285,566.0619 Q1222.6879,566.2181 1221.9848,566.2181 Q1219.4848,566.2181 1218.1566,564.5775 Q1216.8441,562.9212 1216.8441,559.7962 Q1216.8441,556.6712 1218.1566,555.015 Q1219.4848,553.3587 1221.9848,553.3587 Q1222.6879,553.3587 1223.3285,553.515 Q1223.9848,553.6712 1224.5473,553.9681 L1224.5473,556.6869 Q1223.9223,556.1087 1223.3285,555.8431 Q1222.7348,555.5619 1222.1098,555.5619 Q1220.766,555.5619 1220.0785,556.64 Q1219.391,557.7025 1219.391,559.7962 Q1219.391,561.89 1220.0785,562.9681 Q1220.766,564.0306 1222.1098,564.0306 Q1222.7348,564.0306 1223.3285,563.765 Q1223.9223,563.4837 1224.5473,562.9056 L1224.5473,565.6244 Z " fill="#000000"/><text fill="#000000" font-family="sans-serif" font-size="14" lengthAdjust="spacing" textLength="94.0762" x="1236.3382" y="564.8304">ChatMessage</text><line style="stroke:#444444;stroke-width:0.5;" x1="1204.16" x2="1335.8329" y1="575.9837" y2="575.9837"/><g data-visibility-modifier="PUBLIC_FIELD"><ellipse cx="1214.16" cy="589.6322" fill="none" rx="3" ry="3" style="stroke:#038048;stroke-width:1;"/></g><text fill="#000000" font-family="sans-serif" font-size="14" lengthAdjust="spacing" textLength="58.9805" x="1223.16" y="592.9789">role : str</text><g data-visibility-modifier="PUBLIC_FIELD"><ellipse cx="1214.16" cy="605.9291" fill="none" rx="3" ry="3" style="stroke:#038048;stroke-width:1;"/></g><text fill="#000000" font-family="sans-serif" font-size="14" lengthAdjust="spacing" textLength="85.7568" x="1223.16" y="609.2757">content : str</text><g data-visibility-modifier="PUBLIC_FIELD"><ellipse cx="1214.16" cy="622.2259" fill="none" rx="3" ry="3" style="stroke:#038048;stroke-width:1;"/></g><text fill="#000000" font-family="sans-serif" font-size="14" lengthAdjust="spacing" textLength="107.6729" x="1223.16" y="625.5726">timestamp : str</text><line style="stroke:#444444;stroke-width:0.5;" x1="1204.16" x2="1335.8329" y1="632.8744" y2="632.8744"/></g><!--class PillarEntry--><g class="entity" data-qualified-name="Stage 1 Embedded Data.PillarEntry" data-source-line="45" id="ent0008"><rect fill="#FFFFFF" height="80.5938" rx="2.5" ry="2.5" style="stroke:#444444;stroke-width:0.5;" width="111.7568" x="825.12" y="552.1238"/><ellipse cx="843.7477" cy="568.1238" fill="#2E5233" rx="11" ry="11" style="stroke:#E7E7E7;stroke-width:1;"/><path d="M846.7164,573.7644 Q846.1383,574.0613 845.4977,574.2019 Q844.8571,574.3581 844.1539,574.3581 Q841.6539,574.3581 840.3258,572.7175 Q839.0133,571.0613 839.0133,567.9363 Q839.0133,564.8113 840.3258,563.155 Q841.6539,561.4988 844.1539,561.4988 Q844.8571,561.4988 845.4977,561.655 Q846.1539,561.8113 846.7164,562.1081 L846.7164,564.8269 Q846.0914,564.2488 845.4977,563.9831 Q844.9039,563.7019 844.2789,563.7019 Q842.9352,563.7019 842.2477,564.78 Q841.5602,565.8425 841.5602,567.9363 Q841.5602,570.03 842.2477,571.1081 Q842.9352,572.1706 844.2789,572.1706 Q844.9039,572.1706 845.4977,571.905 Q846.0914,571.6238 846.7164,571.0456 L846.7164,573.7644 Z " fill="#000000"/><text fill="#000000" font-family="sans-serif" font-size="14" lengthAdjust="spacing" textLength="71.6953" x="858.5538" y="572.9704">PillarEntry</text><line style="stroke:#444444;stroke-width:0.5;" x1="826.12" x2="935.8768" y1="584.1238" y2="584.1238"/><g data-visibility-modifier="PUBLIC_FIELD"><ellipse cx="836.12" cy="597.7722" fill="none" rx="3" ry="3" style="stroke:#038048;stroke-width:1;"/></g><text fill="#000000" font-family="sans-serif" font-size="14" lengthAdjust="spacing" textLength="82.9951" x="845.12" y="601.1189">score : float</text><g data-visibility-modifier="PUBLIC_FIELD"><ellipse cx="836.12" cy="614.0691" fill="none" rx="3" ry="3" style="stroke:#038048;stroke-width:1;"/></g><text fill="#000000" font-family="sans-serif" font-size="14" lengthAdjust="spacing" textLength="85.7568" x="845.12" y="617.4157">content : str</text><line style="stroke:#444444;stroke-width:0.5;" x1="826.12" x2="935.8768" y1="624.7175" y2="624.7175"/></g><!--class PVD--><g class="entity" data-qualified-name="Stage 1 Embedded Data.PVD" data-source-line="50" id="ent0009"><rect fill="#FFFFFF" height="178.375" rx="2.5" ry="2.5" style="stroke:#444444;stroke-width:0.5;" width="195.4697" x="972.27" y="503.2337"/><ellipse cx="1051.355" cy="519.2337" fill="#2E5233" rx="11" ry="11" style="stroke:#E7E7E7;stroke-width:1;"/><path d="M1054.3237,524.8744 Q1053.7456,525.1712 1053.105,525.3119 Q1052.4643,525.4681 1051.7612,525.4681 Q1049.2612,525.4681 1047.9331,523.8275 Q1046.6206,522.1712 1046.6206,519.0462 Q1046.6206,515.9212 1047.9331,514.265 Q1049.2612,512.6087 1051.7612,512.6087 Q1052.4643,512.6087 1053.105,512.765 Q1053.7612,512.9212 1054.3237,513.2181 L1054.3237,515.9369 Q1053.6987,515.3587 1053.105,515.0931 Q1052.5112,514.8119 1051.8862,514.8119 Q1050.5425,514.8119 1049.855,515.89 Q1049.1675,516.9525 1049.1675,519.0462 Q1049.1675,521.14 1049.855,522.2181 Q1050.5425,523.2806 1051.8862,523.2806 Q1052.5112,523.2806 1053.105,523.015 Q1053.6987,522.7337 1054.3237,522.1556 L1054.3237,524.8744 Z " fill="#000000"/><text fill="#000000" font-family="sans-serif" font-size="14" lengthAdjust="spacing" textLength="28.7998" x="1071.855" y="524.0804">PVD</text><line style="stroke:#444444;stroke-width:0.5;" x1="973.27" x2="1166.7397" y1="535.2337" y2="535.2337"/><g data-visibility-modifier="PUBLIC_FIELD"><ellipse cx="983.27" cy="548.8822" fill="none" rx="3" ry="3" style="stroke:#038048;stroke-width:1;"/></g><text fill="#000000" font-family="sans-serif" font-size="14" lengthAdjust="spacing" textLength="59.5273" x="992.27" y="552.2289">title : str</text><g data-visibility-modifier="PUBLIC_FIELD"><ellipse cx="983.27" cy="565.1791" fill="none" rx="3" ry="3" style="stroke:#038048;stroke-width:1;"/></g><text fill="#000000" font-family="sans-serif" font-size="14" lengthAdjust="spacing" textLength="169.4697" x="992.27" y="568.5257">problem_statement : str</text><g data-visibility-modifier="PUBLIC_FIELD"><ellipse cx="983.27" cy="581.4759" fill="none" rx="3" ry="3" style="stroke:#038048;stroke-width:1;"/></g><text fill="#000000" font-family="sans-serif" font-size="14" lengthAdjust="spacing" textLength="155.3125" x="992.27" y="584.8226">target_audience : Dict</text><g data-visibility-modifier="PUBLIC_FIELD"><ellipse cx="983.27" cy="597.7728" fill="none" rx="3" ry="3" style="stroke:#038048;stroke-width:1;"/></g><text fill="#000000" font-family="sans-serif" font-size="14" lengthAdjust="spacing" textLength="107.8438" x="992.27" y="601.1195">user_flow : Dict</text><g data-visibility-modifier="PUBLIC_FIELD"><ellipse cx="983.27" cy="614.0697" fill="none" rx="3" ry="3" style="stroke:#038048;stroke-width:1;"/></g><text fill="#000000" font-family="sans-serif" font-size="14" lengthAdjust="spacing" textLength="155.6133" x="992.27" y="617.4164">success_metrics : Dict</text><g data-visibility-modifier="PUBLIC_FIELD"><ellipse cx="983.27" cy="630.3666" fill="none" rx="3" ry="3" style="stroke:#038048;stroke-width:1;"/></g><text fill="#000000" font-family="sans-serif" font-size="14" lengthAdjust="spacing" textLength="163.3311" x="992.27" y="633.7132">core_features : List[str]</text><g data-visibility-modifier="PUBLIC_FIELD"><ellipse cx="983.27" cy="646.6634" fill="none" rx="3" ry="3" style="stroke:#038048;stroke-width:1;"/></g><text fill="#000000" font-family="sans-serif" font-size="14" lengthAdjust="spacing" textLength="145.3525" x="992.27" y="650.0101">constraints : List[str]</text><g data-visibility-modifier="PUBLIC_FIELD"><ellipse cx="983.27" cy="662.9603" fill="none" rx="3" ry="3" style="stroke:#038048;stroke-width:1;"/></g><text fill="#000000" font-family="sans-serif" font-size="14" lengthAdjust="spacing" textLength="131.0039" x="992.27" y="666.307">raw_summary : str</text><line style="stroke:#444444;stroke-width:0.5;" x1="973.27" x2="1166.7397" y1="673.6087" y2="673.6087"/></g><!--class Stage2ToggleFeature--><g class="entity" data-qualified-name="Stage 2 Schemas . Embedded Data.Stage2ToggleFeature" data-source-line="65" id="ent0011"><rect fill="#FFFFFF" height="105.1563" rx="2.5" ry="2.5" style="stroke:#444444;stroke-width:0.5;" width="182.7324" x="1392.63" y="324.9137"/><ellipse cx="1407.63" cy="345.0466" fill="#2E5233" rx="11" ry="11" style="stroke:#E7E7E7;stroke-width:1;"/><path d="M1410.5988,350.6872 Q1410.0206,350.9841 1409.38,351.1247 Q1408.7394,351.2809 1408.0363,351.2809 Q1405.5363,351.2809 1404.2081,349.6403 Q1402.8956,347.9841 1402.8956,344.8591 Q1402.8956,341.7341 1404.2081,340.0778 Q1405.5363,338.4216 1408.0363,338.4216 Q1408.7394,338.4216 1409.38,338.5778 Q1410.0363,338.7341 1410.5988,339.0309 L1410.5988,341.7497 Q1409.9738,341.1716 1409.38,340.9059 Q1408.7863,340.6247 1408.1613,340.6247 Q1406.8175,340.6247 1406.13,341.7028 Q1405.4425,342.7653 1405.4425,344.8591 Q1405.4425,346.9528 1406.13,348.0309 Q1406.8175,349.0934 1408.1613,349.0934 Q1408.7863,349.0934 1409.38,348.8278 Q1409.9738,348.5466 1410.5988,347.9684 L1410.5988,350.6872 Z " fill="#000000"/><text fill="#000000" font-family="sans-serif" font-size="12" font-style="italic" lengthAdjust="spacing" textLength="79.9336" x="1457.0294" y="341.0524">&#171;BaseModel&#187;</text><text fill="#000000" font-family="sans-serif" font-size="14" lengthAdjust="spacing" textLength="150.7324" x="1421.63" y="356.8776">Stage2ToggleFeature</text><line style="stroke:#444444;stroke-width:0.5;" x1="1393.63" x2="1574.3624" y1="365.1794" y2="365.1794"/><g data-visibility-modifier="PUBLIC_FIELD"><ellipse cx="1403.63" cy="378.8278" fill="none" rx="3" ry="3" style="stroke:#038048;stroke-width:1;"/></g><text fill="#000000" font-family="sans-serif" font-size="14" lengthAdjust="spacing" textLength="81.0195" x="1412.63" y="382.1745">epic_id : str</text><g data-visibility-modifier="PUBLIC_FIELD"><ellipse cx="1403.63" cy="395.1247" fill="none" rx="3" ry="3" style="stroke:#038048;stroke-width:1;"/></g><text fill="#000000" font-family="sans-serif" font-size="14" lengthAdjust="spacing" textLength="102.7852" x="1412.63" y="398.4714">feature_id : str</text><g data-visibility-modifier="PUBLIC_FIELD"><ellipse cx="1403.63" cy="411.4216" fill="none" rx="3" ry="3" style="stroke:#038048;stroke-width:1;"/></g><text fill="#000000" font-family="sans-serif" font-size="14" lengthAdjust="spacing" textLength="99.8662" x="1412.63" y="414.7682">enabled : bool</text><line style="stroke:#444444;stroke-width:0.5;" x1="1393.63" x2="1574.3624" y1="422.07" y2="422.07"/></g><!--class Stage2Data--><g class="entity" data-qualified-name="Stage 2 Schemas . Embedded Data.Stage2Data" data-source-line="71" id="ent0012"><rect fill="#FFFFFF" height="96.8906" rx="2.5" ry="2.5" style="stroke:#444444;stroke-width:0.5;" width="381.6875" x="1610.16" y="329.0537"/><ellipse cx="1755.3587" cy="345.0537" fill="#2E5233" rx="11" ry="11" style="stroke:#E7E7E7;stroke-width:1;"/><path d="M1758.3275,350.6944 Q1757.7494,350.9912 1757.1087,351.1319 Q1756.4681,351.2881 1755.765,351.2881 Q1753.265,351.2881 1751.9369,349.6475 Q1750.6244,347.9912 1750.6244,344.8662 Q1750.6244,341.7412 1751.9369,340.085 Q1753.265,338.4287 1755.765,338.4287 Q1756.4681,338.4287 1757.1087,338.585 Q1757.765,338.7412 1758.3275,339.0381 L1758.3275,341.7569 Q1757.7025,341.1787 1757.1087,340.9131 Q1756.515,340.6319 1755.89,340.6319 Q1754.5462,340.6319 1753.8587,341.71 Q1753.1712,342.7725 1753.1712,344.8662 Q1753.1712,346.96 1753.8587,348.0381 Q1754.5462,349.1006 1755.89,349.1006 Q1756.515,349.1006 1757.1087,348.835 Q1757.7025,348.5537 1758.3275,347.9756 L1758.3275,350.6944 Z " fill="#000000"/><text fill="#000000" font-family="sans-serif" font-size="14" lengthAdjust="spacing" textLength="82.79" x="1775.8587" y="349.9004">Stage2Data</text><line style="stroke:#444444;stroke-width:0.5;" x1="1611.16" x2="1990.8475" y1="361.0537" y2="361.0537"/><g data-visibility-modifier="PUBLIC_FIELD"><ellipse cx="1621.16" cy="374.7022" fill="none" rx="3" ry="3" style="stroke:#038048;stroke-width:1;"/></g><text fill="#000000" font-family="sans-serif" font-size="14" lengthAdjust="spacing" textLength="75.1748" x="1630.16" y="378.0489">status : str</text><g data-visibility-modifier="PUBLIC_FIELD"><ellipse cx="1621.16" cy="390.9991" fill="none" rx="3" ry="3" style="stroke:#038048;stroke-width:1;"/></g><text fill="#000000" font-family="sans-serif" font-size="14" lengthAdjust="spacing" textLength="114.7139" x="1630.16" y="394.3457">epics : List[Epic]</text><g data-visibility-modifier="PUBLIC_FIELD"><ellipse cx="1621.16" cy="407.2959" fill="none" rx="3" ry="3" style="stroke:#038048;stroke-width:1;"/></g><text fill="#000000" font-family="sans-serif" font-size="14" lengthAdjust="spacing" textLength="355.6875" x="1630.16" y="410.6426">selected_features_manifesto : List[ManifestoEntry]</text><line style="stroke:#444444;stroke-width:0.5;" x1="1611.16" x2="1990.8475" y1="417.9444" y2="417.9444"/></g><!--class Epic--><g class="entity" data-qualified-name="Stage 2 Schemas . Embedded Data.Epic" data-source-line="77" id="ent0013"><rect fill="#FFFFFF" height="113.1875" rx="2.5" ry="2.5" style="stroke:#444444;stroke-width:0.5;" width="187.1367" x="1582.43" y="535.8338"/><ellipse cx="1657.0887" cy="551.8338" fill="#2E5233" rx="11" ry="11" style="stroke:#E7E7E7;stroke-width:1;"/><path d="M1660.0574,557.4744 Q1659.4793,557.7713 1658.8387,557.9119 Q1658.1981,558.0681 1657.4949,558.0681 Q1654.9949,558.0681 1653.6668,556.4275 Q1652.3543,554.7713 1652.3543,551.6463 Q1652.3543,548.5213 1653.6668,546.865 Q1654.9949,545.2088 1657.4949,545.2088 Q1658.1981,545.2088 1658.8387,545.365 Q1659.4949,545.5213 1660.0574,545.8181 L1660.0574,548.5369 Q1659.4324,547.9588 1658.8387,547.6931 Q1658.2449,547.4119 1657.6199,547.4119 Q1656.2762,547.4119 1655.5887,548.49 Q1654.9012,549.5525 1654.9012,551.6463 Q1654.9012,553.74 1655.5887,554.8181 Q1656.2762,555.8806 1657.6199,555.8806 Q1658.2449,555.8806 1658.8387,555.615 Q1659.4324,555.3338 1660.0574,554.7556 L1660.0574,557.4744 Z " fill="#000000"/><text fill="#000000" font-family="sans-serif" font-size="14" lengthAdjust="spacing" textLength="29.3193" x="1677.5887" y="556.6804">Epic</text><line style="stroke:#444444;stroke-width:0.5;" x1="1583.43" x2="1768.5667" y1="567.8338" y2="567.8338"/><g data-visibility-modifier="PUBLIC_FIELD"><ellipse cx="1593.43" cy="581.4822" fill="none" rx="3" ry="3" style="stroke:#038048;stroke-width:1;"/></g><text fill="#000000" font-family="sans-serif" font-size="14" lengthAdjust="spacing" textLength="44.9326" x="1602.43" y="584.8289">id : str</text><g data-visibility-modifier="PUBLIC_FIELD"><ellipse cx="1593.43" cy="597.7791" fill="none" rx="3" ry="3" style="stroke:#038048;stroke-width:1;"/></g><text fill="#000000" font-family="sans-serif" font-size="14" lengthAdjust="spacing" textLength="71.8594" x="1602.43" y="601.1257">name : str</text><g data-visibility-modifier="PUBLIC_FIELD"><ellipse cx="1593.43" cy="614.0759" fill="none" rx="3" ry="3" style="stroke:#038048;stroke-width:1;"/></g><text fill="#000000" font-family="sans-serif" font-size="14" lengthAdjust="spacing" textLength="109.9971" x="1602.43" y="617.4226">description : str</text><g data-visibility-modifier="PUBLIC_FIELD"><ellipse cx="1593.43" cy="630.3728" fill="none" rx="3" ry="3" style="stroke:#038048;stroke-width:1;"/></g><text fill="#000000" font-family="sans-serif" font-size="14" lengthAdjust="spacing" textLength="161.1367" x="1602.43" y="633.7195">features : List[Feature]</text><line style="stroke:#444444;stroke-width:0.5;" x1="1583.43" x2="1768.5667" y1="641.0213" y2="641.0213"/></g><!--class Feature--><g class="entity" data-qualified-name="Stage 2 Schemas . Embedded Data.Feature" data-source-line="84" id="ent0014"><rect fill="#FFFFFF" height="145.7813" rx="2.5" ry="2.5" style="stroke:#444444;stroke-width:0.5;" width="135.9971" x="1664" y="744.6138"/><ellipse cx="1701.5092" cy="760.6138" fill="#2E5233" rx="11" ry="11" style="stroke:#E7E7E7;stroke-width:1;"/><path d="M1704.478,766.2544 Q1703.8999,766.5513 1703.2592,766.6919 Q1702.6186,766.8481 1701.9155,766.8481 Q1699.4155,766.8481 1698.0874,765.2075 Q1696.7749,763.5513 1696.7749,760.4263 Q1696.7749,757.3013 1698.0874,755.645 Q1699.4155,753.9888 1701.9155,753.9888 Q1702.6186,753.9888 1703.2592,754.145 Q1703.9155,754.3013 1704.478,754.5981 L1704.478,757.3169 Q1703.853,756.7388 1703.2592,756.4731 Q1702.6655,756.1919 1702.0405,756.1919 Q1700.6967,756.1919 1700.0092,757.27 Q1699.3217,758.3325 1699.3217,760.4263 Q1699.3217,762.52 1700.0092,763.5981 Q1700.6967,764.6606 1702.0405,764.6606 Q1702.6655,764.6606 1703.2592,764.395 Q1703.853,764.1138 1704.478,763.5356 L1704.478,766.2544 Z " fill="#000000"/><text fill="#000000" font-family="sans-serif" font-size="14" lengthAdjust="spacing" textLength="53.9766" x="1720.5113" y="765.4604">Feature</text><line style="stroke:#444444;stroke-width:0.5;" x1="1665" x2="1798.9971" y1="776.6138" y2="776.6138"/><g data-visibility-modifier="PUBLIC_FIELD"><ellipse cx="1675" cy="790.2622" fill="none" rx="3" ry="3" style="stroke:#038048;stroke-width:1;"/></g><text fill="#000000" font-family="sans-serif" font-size="14" lengthAdjust="spacing" textLength="44.9326" x="1684" y="793.6089">id : str</text><g data-visibility-modifier="PUBLIC_FIELD"><ellipse cx="1675" cy="806.5591" fill="none" rx="3" ry="3" style="stroke:#038048;stroke-width:1;"/></g><text fill="#000000" font-family="sans-serif" font-size="14" lengthAdjust="spacing" textLength="71.8594" x="1684" y="809.9057">name : str</text><g data-visibility-modifier="PUBLIC_FIELD"><ellipse cx="1675" cy="822.8559" fill="none" rx="3" ry="3" style="stroke:#038048;stroke-width:1;"/></g><text fill="#000000" font-family="sans-serif" font-size="14" lengthAdjust="spacing" textLength="109.9971" x="1684" y="826.2026">description : str</text><g data-visibility-modifier="PUBLIC_FIELD"><ellipse cx="1675" cy="839.1528" fill="none" rx="3" ry="3" style="stroke:#038048;stroke-width:1;"/></g><text fill="#000000" font-family="sans-serif" font-size="14" lengthAdjust="spacing" textLength="99.8662" x="1684" y="842.4995">enabled : bool</text><g data-visibility-modifier="PUBLIC_FIELD"><ellipse cx="1675" cy="855.4497" fill="none" rx="3" ry="3" style="stroke:#038048;stroke-width:1;"/></g><text fill="#000000" font-family="sans-serif" font-size="14" lengthAdjust="spacing" textLength="82.6738" x="1684" y="858.7964">priority : str</text><g data-visibility-modifier="PUBLIC_FIELD"><ellipse cx="1675" cy="871.7466" fill="none" rx="3" ry="3" style="stroke:#038048;stroke-width:1;"/></g><text fill="#000000" font-family="sans-serif" font-size="14" lengthAdjust="spacing" textLength="109.3955" x="1684" y="875.0932">complexity : str</text><line style="stroke:#444444;stroke-width:0.5;" x1="1665" x2="1798.9971" y1="882.395" y2="882.395"/></g><!--class ManifestoEntry--><g class="entity" data-qualified-name="Stage 2 Schemas . Embedded Data.ManifestoEntry" data-source-line="93" id="ent0015"><rect fill="#FFFFFF" height="113.1875" rx="2.5" ry="2.5" style="stroke:#444444;stroke-width:0.5;" width="187.1367" x="1804.43" y="535.8338"/><ellipse cx="1841.7393" cy="551.8338" fill="#2E5233" rx="11" ry="11" style="stroke:#E7E7E7;stroke-width:1;"/><path d="M1844.708,557.4744 Q1844.1299,557.7713 1843.4893,557.9119 Q1842.8487,558.0681 1842.1455,558.0681 Q1839.6455,558.0681 1838.3174,556.4275 Q1837.0049,554.7713 1837.0049,551.6463 Q1837.0049,548.5213 1838.3174,546.865 Q1839.6455,545.2088 1842.1455,545.2088 Q1842.8487,545.2088 1843.4893,545.365 Q1844.1455,545.5213 1844.708,545.8181 L1844.708,548.5369 Q1844.083,547.9588 1843.4893,547.6931 Q1842.8955,547.4119 1842.2705,547.4119 Q1840.9268,547.4119 1840.2393,548.49 Q1839.5518,549.5525 1839.5518,551.6463 Q1839.5518,553.74 1840.2393,554.8181 Q1840.9268,555.8806 1842.2705,555.8806 Q1842.8955,555.8806 1843.4893,555.615 Q1844.083,555.3338 1844.708,554.7556 L1844.708,557.4744 Z " fill="#000000"/><text fill="#000000" font-family="sans-serif" font-size="14" lengthAdjust="spacing" textLength="105.5605" x="1860.6969" y="556.6804">ManifestoEntry</text><line style="stroke:#444444;stroke-width:0.5;" x1="1805.43" x2="1990.5667" y1="567.8338" y2="567.8338"/><g data-visibility-modifier="PUBLIC_FIELD"><ellipse cx="1815.43" cy="581.4822" fill="none" rx="3" ry="3" style="stroke:#038048;stroke-width:1;"/></g><text fill="#000000" font-family="sans-serif" font-size="14" lengthAdjust="spacing" textLength="81.0195" x="1824.43" y="584.8289">epic_id : str</text><g data-visibility-modifier="PUBLIC_FIELD"><ellipse cx="1815.43" cy="597.7791" fill="none" rx="3" ry="3" style="stroke:#038048;stroke-width:1;"/></g><text fill="#000000" font-family="sans-serif" font-size="14" lengthAdjust="spacing" textLength="107.9463" x="1824.43" y="601.1257">epic_name : str</text><g data-visibility-modifier="PUBLIC_FIELD"><ellipse cx="1815.43" cy="614.0759" fill="none" rx="3" ry="3" style="stroke:#038048;stroke-width:1;"/></g><text fill="#000000" font-family="sans-serif" font-size="14" lengthAdjust="spacing" textLength="146.084" x="1824.43" y="617.4226">epic_description : str</text><g data-visibility-modifier="PUBLIC_FIELD"><ellipse cx="1815.43" cy="630.3728" fill="none" rx="3" ry="3" style="stroke:#038048;stroke-width:1;"/></g><text fill="#000000" font-family="sans-serif" font-size="14" lengthAdjust="spacing" textLength="161.1367" x="1824.43" y="633.7195">features : List[Feature]</text><line style="stroke:#444444;stroke-width:0.5;" x1="1805.43" x2="1990.5667" y1="641.0213" y2="641.0213"/></g><!--class AIService--><g class="entity" data-qualified-name="Services.AIService" data-source-line="104" id="ent0017"><rect fill="#FFFFFF" height="105.1563" rx="2.5" ry="2.5" style="stroke:#444444;stroke-width:0.5;" width="409.8379" x="136.08" y="324.9137"/><ellipse cx="304.0253" cy="345.0466" fill="#2E5233" rx="11" ry="11" style="stroke:#E7E7E7;stroke-width:1;"/><path d="M306.9941,350.6872 Q306.4159,350.9841 305.7753,351.1247 Q305.1347,351.2809 304.4316,351.2809 Q301.9316,351.2809 300.6034,349.6403 Q299.2909,347.9841 299.2909,344.8591 Q299.2909,341.7341 300.6034,340.0778 Q301.9316,338.4216 304.4316,338.4216 Q305.1347,338.4216 305.7753,338.5778 Q306.4316,338.7341 306.9941,339.0309 L306.9941,341.7497 Q306.3691,341.1716 305.7753,340.9059 Q305.1816,340.6247 304.5566,340.6247 Q303.2128,340.6247 302.5253,341.7028 Q301.8378,342.7653 301.8378,344.8591 Q301.8378,346.9528 302.5253,348.0309 Q303.2128,349.0934 304.5566,349.0934 Q305.1816,349.0934 305.7753,348.8278 Q306.3691,348.5466 306.9941,347.9684 L306.9941,350.6872 Z " fill="#000000"/><text fill="#000000" font-family="sans-serif" font-size="12" font-style="italic" lengthAdjust="spacing" textLength="59.6543" x="327.4218" y="341.0524">&#171;module&#187;</text><text fill="#000000" font-family="sans-serif" font-size="14" lengthAdjust="spacing" textLength="65.4473" x="324.5253" y="356.8776">AIService</text><line style="stroke:#444444;stroke-width:0.5;" x1="137.08" x2="544.9179" y1="365.1794" y2="365.1794"/><line style="stroke:#444444;stroke-width:0.5;" x1="137.08" x2="544.9179" y1="373.1794" y2="373.1794"/><g data-visibility-modifier="PUBLIC_METHOD"><ellipse cx="147.08" cy="386.8278" fill="#84BE84" rx="3" ry="3" style="stroke:#038048;stroke-width:1;"/></g><text fill="#000000" font-family="sans-serif" font-size="14" lengthAdjust="spacing" textLength="383.8379" x="156.08" y="390.1745">chat_completion(system, history, message, temp) : str</text><g data-visibility-modifier="PUBLIC_METHOD"><ellipse cx="147.08" cy="403.1247" fill="#84BE84" rx="3" ry="3" style="stroke:#038048;stroke-width:1;"/></g><text fill="#000000" font-family="sans-serif" font-size="14" lengthAdjust="spacing" textLength="366.4951" x="156.08" y="406.4714">structured_completion(system, prompt, temp) : Dict</text><g data-visibility-modifier="PUBLIC_METHOD"><ellipse cx="147.08" cy="419.4216" fill="#84BE84" rx="3" ry="3" style="stroke:#038048;stroke-width:1;"/></g><text fill="#000000" font-family="sans-serif" font-size="14" lengthAdjust="spacing" textLength="231.0273" x="156.08" y="422.7682">get_llm(temperature) : ChatGroq</text></g><!--class Stage1Service--><g class="entity" data-qualified-name="Services.Stage1Service" data-source-line="110" id="ent0018"><rect fill="#FFFFFF" height="88.8594" rx="2.5" ry="2.5" style="stroke:#444444;stroke-width:0.5;" width="290.8584" x="21.57" y="102.7437"/><ellipse cx="112.1974" cy="122.8766" fill="#2E5233" rx="11" ry="11" style="stroke:#E7E7E7;stroke-width:1;"/><path d="M115.1662,128.5172 Q114.5881,128.8141 113.9474,128.9547 Q113.3068,129.1109 112.6037,129.1109 Q110.1037,129.1109 108.7756,127.4703 Q107.4631,125.8141 107.4631,122.6891 Q107.4631,119.5641 108.7756,117.9078 Q110.1037,116.2516 112.6037,116.2516 Q113.3068,116.2516 113.9474,116.4078 Q114.6037,116.5641 115.1662,116.8609 L115.1662,119.5797 Q114.5412,119.0016 113.9474,118.7359 Q113.3537,118.4547 112.7287,118.4547 Q111.3849,118.4547 110.6974,119.5328 Q110.0099,120.5953 110.0099,122.6891 Q110.0099,124.7828 110.6974,125.8609 Q111.3849,126.9234 112.7287,126.9234 Q113.3537,126.9234 113.9474,126.6578 Q114.5412,126.3766 115.1662,125.7984 L115.1662,128.5172 Z " fill="#000000"/><text fill="#000000" font-family="sans-serif" font-size="12" font-style="italic" lengthAdjust="spacing" textLength="59.6543" x="153.4221" y="118.8824">&#171;module&#187;</text><text fill="#000000" font-family="sans-serif" font-size="14" lengthAdjust="spacing" textLength="101.1035" x="132.6974" y="134.7076">Stage1Service</text><line style="stroke:#444444;stroke-width:0.5;" x1="22.57" x2="311.4284" y1="143.0094" y2="143.0094"/><line style="stroke:#444444;stroke-width:0.5;" x1="22.57" x2="311.4284" y1="151.0094" y2="151.0094"/><g data-visibility-modifier="PUBLIC_METHOD"><ellipse cx="32.57" cy="164.6578" fill="#84BE84" rx="3" ry="3" style="stroke:#038048;stroke-width:1;"/></g><text fill="#000000" font-family="sans-serif" font-size="14" lengthAdjust="spacing" textLength="264.8584" x="41.57" y="168.0045">process_chat(project, message) : Dict</text><g data-visibility-modifier="PUBLIC_METHOD"><ellipse cx="32.57" cy="180.9547" fill="#84BE84" rx="3" ry="3" style="stroke:#038048;stroke-width:1;"/></g><text fill="#000000" font-family="sans-serif" font-size="14" lengthAdjust="spacing" textLength="197.7773" x="41.57" y="184.3014">generate_pvd(project) : Dict</text></g><!--class Stage2Service--><g class="entity" data-qualified-name="Services.Stage2Service" data-source-line="115" id="ent0019"><rect fill="#FFFFFF" height="105.1563" rx="2.5" ry="2.5" style="stroke:#444444;stroke-width:0.5;" width="421.9785" x="347.01" y="94.5938"/><ellipse cx="503.1975" cy="114.7266" fill="#2E5233" rx="11" ry="11" style="stroke:#E7E7E7;stroke-width:1;"/><path d="M506.1663,120.3672 Q505.5881,120.6641 504.9475,120.8047 Q504.3069,120.9609 503.6038,120.9609 Q501.1038,120.9609 499.7756,119.3203 Q498.4631,117.6641 498.4631,114.5391 Q498.4631,111.4141 499.7756,109.7578 Q501.1038,108.1016 503.6038,108.1016 Q504.3069,108.1016 504.9475,108.2578 Q505.6038,108.4141 506.1663,108.7109 L506.1663,111.4297 Q505.5413,110.8516 504.9475,110.5859 Q504.3538,110.3047 503.7288,110.3047 Q502.385,110.3047 501.6975,111.3828 Q501.01,112.4453 501.01,114.5391 Q501.01,116.6328 501.6975,117.7109 Q502.385,118.7734 503.7288,118.7734 Q504.3538,118.7734 504.9475,118.5078 Q505.5413,118.2266 506.1663,117.6484 L506.1663,120.3672 Z " fill="#000000"/><text fill="#000000" font-family="sans-serif" font-size="12" font-style="italic" lengthAdjust="spacing" textLength="59.6543" x="544.4221" y="110.7324">&#171;module&#187;</text><text fill="#000000" font-family="sans-serif" font-size="14" lengthAdjust="spacing" textLength="101.1035" x="523.6975" y="126.5576">Stage2Service</text><line style="stroke:#444444;stroke-width:0.5;" x1="348.01" x2="767.9885" y1="134.8594" y2="134.8594"/><line style="stroke:#444444;stroke-width:0.5;" x1="348.01" x2="767.9885" y1="142.8594" y2="142.8594"/><g data-visibility-modifier="PUBLIC_METHOD"><ellipse cx="358.01" cy="156.5078" fill="#84BE84" rx="3" ry="3" style="stroke:#038048;stroke-width:1;"/></g><text fill="#000000" font-family="sans-serif" font-size="14" lengthAdjust="spacing" textLength="229.8652" x="367.01" y="159.8545">generate_features(project) : Dict</text><g data-visibility-modifier="PUBLIC_METHOD"><ellipse cx="358.01" cy="172.8047" fill="#84BE84" rx="3" ry="3" style="stroke:#038048;stroke-width:1;"/></g><text fill="#000000" font-family="sans-serif" font-size="14" lengthAdjust="spacing" textLength="395.9785" x="367.01" y="176.1514">toggle_feature(stage, epic_id, feature_id, enabled) : Dict</text><g data-visibility-modifier="PUBLIC_METHOD"><ellipse cx="358.01" cy="189.1016" fill="#84BE84" rx="3" ry="3" style="stroke:#038048;stroke-width:1;"/></g><text fill="#000000" font-family="sans-serif" font-size="14" lengthAdjust="spacing" textLength="202.5557" x="367.01" y="192.4482">build_manifesto(stage) : Dict</text></g><g class="entity" data-qualified-name="GMN31" data-source-line="139" id="ent0032"><path d="M2023.67,797.3738 L2023.67,837.6394 A0,0 0 0 0 2023.67,837.6394 L2330.3399,837.6394 A0,0 0 0 0 2330.3399,837.6394 L2330.3399,807.3738 L2320.3399,797.3738 L2156.47,797.3738 L1968.04,649.4337 L2148.47,797.3738 L2023.67,797.3738 A0,0 0 0 0 2023.67,797.3738" fill="#FFFDE7" style="stroke:#CCCCCC;stroke-width:0.5;"/><path d="M2320.3399,797.3738 L2320.3399,807.3738 L2330.3399,807.3738 L2320.3399,797.3738" fill="#FFFDE7" style="stroke:#CCCCCC;stroke-width:0.5;"/><text fill="#000000" font-family="sans-serif" font-size="13" lengthAdjust="spacing" textLength="171.3105" x="2029.67" y="814.4406">Built by build_manifesto().</text><text fill="#000000" font-family="sans-serif" font-size="13" lengthAdjust="spacing" textLength="285.6699" x="2029.67" y="829.5735">Referenced by all downstream stages (3-7).</text></g><!--reverse link Stage1Data to ChatMessage--><g class="link" data-entity-1="ent0006" data-entity-2="ent0007" data-link-type="composition" data-source-line="123" id="lnk20"><path codeLine="123" d="M1121.8083,449.8971 C1145.8383,468.8171 1162.21,482.5937 1185,503.2337 C1198.87,515.8038 1213.25,530.1438 1226.14,543.5638" fill="none" id="Stage1Data-backto-ChatMessage" style="stroke:#333333;stroke-width:1;"/><polygon fill="#333333" points="1112.38,442.4737,1114.6197,449.3282,1121.8083,449.8971,1119.5686,443.0427,1112.38,442.4737" style="stroke:#333333;stroke-width:1;"/><text fill="#000000" font-family="sans-serif" font-size="13" lengthAdjust="spacing" textLength="23.0356" x="1195.7039" y="533.0655">0..*</text></g><!--reverse link Stage1Data to PillarEntry--><g class="link" data-entity-1="ent0006" data-entity-2="ent0008" data-link-type="composition" data-source-line="124" id="lnk21"><path codeLine="124" d="M976.2136,452.5705 C951.8636,488.0805 929.16,521.1837 908.17,551.8038" fill="none" id="Stage1Data-backto-PillarEntry" style="stroke:#333333;stroke-width:1;"/><polygon fill="#333333" points="983,442.6737,976.3079,445.36,976.2136,452.5705,982.9057,449.8842,983,442.6737" style="stroke:#333333;stroke-width:1;"/><text fill="#000000" font-family="sans-serif" font-size="13" lengthAdjust="spacing" textLength="8.271" x="904.0302" y="540.9123">4</text></g><!--reverse link Stage1Data to PVD--><g class="link" data-entity-1="ent0006" data-entity-2="ent0009" data-link-type="composition" data-source-line="125" id="lnk22"><path codeLine="125" d="M1042.3337,454.4366 C1046.1637,473.4166 1048.06,482.7737 1052.14,502.9938" fill="none" id="Stage1Data-backto-PVD" style="stroke:#333333;stroke-width:1;"/><polygon fill="#333333" points="1039.96,442.6737,1037.2259,449.3464,1042.3337,454.4366,1045.0678,447.764,1039.96,442.6737" style="stroke:#333333;stroke-width:1;"/><text fill="#000000" font-family="sans-serif" font-size="13" lengthAdjust="spacing" textLength="24.8066" x="1025.7002" y="492.0393">0..1</text></g><!--reverse link Stage2Data to Epic--><g class="link" data-entity-1="ent0012" data-entity-2="ent0013" data-link-type="composition" data-source-line="127" id="lnk23"><path codeLine="127" d="M1766.8732,436.6313 C1747.8632,469.0013 1728.76,501.5437 1708.83,535.5038" fill="none" id="Stage2Data-backto-Epic" style="stroke:#333333;stroke-width:1;"/><polygon fill="#333333" points="1772.95,426.2837,1766.4624,429.4319,1766.8732,436.6313,1773.3608,433.4831,1772.95,426.2837" style="stroke:#333333;stroke-width:1;"/><text fill="#000000" font-family="sans-serif" font-size="13" lengthAdjust="spacing" textLength="24.8066" x="1687.418" y="524.7271">5..8</text></g><!--reverse link Epic to Feature--><g class="link" data-entity-1="ent0013" data-entity-2="ent0014" data-link-type="composition" data-source-line="128" id="lnk24"><path codeLine="128" d="M1692.9799,661.0731 C1700.1999,689.8531 1706.17,713.6138 1713.9,744.4137" fill="none" id="Epic-backto-Feature" style="stroke:#333333;stroke-width:1;"/><polygon fill="#333333" points="1690.06,649.4337,1687.6402,656.2267,1692.9799,661.0731,1695.3997,654.2801,1690.06,649.4337" style="stroke:#333333;stroke-width:1;"/><text fill="#000000" font-family="sans-serif" font-size="13" lengthAdjust="spacing" textLength="24.8066" x="1686.9769" y="733.554">3..5</text></g><!--reverse link Stage2Data to ManifestoEntry--><g class="link" data-entity-1="ent0012" data-entity-2="ent0015" data-link-type="composition" data-source-line="129" id="lnk25"><path codeLine="129" d="M1827.743,437.2048 C1842.483,469.5748 1857.06,501.5437 1872.53,535.5038" fill="none" id="Stage2Data-backto-ManifestoEntry" style="stroke:#333333;stroke-width:1;"/><polygon fill="#333333" points="1822.77,426.2837,1821.6162,433.4019,1827.743,437.2048,1828.8969,430.0866,1822.77,426.2837" style="stroke:#333333;stroke-width:1;"/><text fill="#000000" font-family="sans-serif" font-size="13" lengthAdjust="spacing" textLength="23.0356" x="1845.0267" y="524.7271">0..*</text></g><!--reverse link ManifestoEntry to Feature--><g class="link" data-entity-1="ent0015" data-entity-2="ent0014" data-link-type="composition" data-source-line="130" id="lnk26"><path codeLine="130" d="M1849.1654,659.0602 C1827.7454,687.8402 1808.56,713.6138 1785.65,744.4137" fill="none" id="ManifestoEntry-backto-Feature" style="stroke:#333333;stroke-width:1;"/><polygon fill="#333333" points="1856.33,649.4337,1849.5389,651.8588,1849.1654,659.0602,1855.9565,656.6352,1856.33,649.4337" style="stroke:#333333;stroke-width:1;"/><text fill="#000000" font-family="sans-serif" font-size="13" lengthAdjust="spacing" textLength="23.0356" x="1766.801" y="733.554">1..*</text></g><!--link Stage1Service to AIService--><g class="link" data-entity-1="ent0018" data-entity-2="ent0017" data-link-type="dependency" data-source-line="132" id="lnk27"><path codeLine="132" d="M200.34,191.9237 C229.16,229.7338 267.2127,279.6819 297.7327,319.7219" fill="none" id="Stage1Service-to-AIService" style="stroke:#333333;stroke-width:1;stroke-dasharray:7,7;"/><polygon fill="#333333" points="301.37,324.4938,299.0953,314.9112,298.3389,320.5172,292.7329,319.7609,301.37,324.4938" style="stroke:#333333;stroke-width:1;"/><text fill="#000000" font-family="sans-serif" font-size="13" lengthAdjust="spacing" textLength="107.4785" x="269.5413" y="242.8206">chat_completion</text><text fill="#000000" font-family="sans-serif" font-size="13" lengthAdjust="spacing" textLength="146.561" x="250" y="257.9535">structured_completion</text></g><!--link Stage2Service to AIService--><g class="link" data-entity-1="ent0019" data-entity-2="ent0017" data-link-type="dependency" data-source-line="133" id="lnk28"><path codeLine="133" d="M508.76,199.9838 C473.37,237.2238 429.9834,282.8646 394.5534,320.1446" fill="none" id="Stage2Service-to-AIService" style="stroke:#333333;stroke-width:1;stroke-dasharray:7,7;"/><polygon fill="#333333" points="390.42,324.4938,399.5195,320.7255,393.8645,320.8694,393.7206,315.2144,390.42,324.4938" style="stroke:#333333;stroke-width:1;"/><text fill="#000000" font-family="sans-serif" font-size="13" lengthAdjust="spacing" textLength="146.561" x="476" y="250.3206">structured_completion</text></g><!--link Stage1Service to Stage1Data--><g class="link" data-entity-1="ent0018" data-entity-2="ent0006" data-link-type="dependency" data-source-line="135" id="lnk29"><path codeLine="135" d="M274.5,191.9638 C292.77,198.0437 311.75,203.5437 330,207.4537 C461.16,235.6038 498.66,207.8438 631,229.7537 C700.77,241.3037 718.21,246.5237 785,269.7537 C820.24,282.0137 851.994,294.8366 886.424,309.9166" fill="none" id="Stage1Service-to-Stage1Data" style="stroke:#333333;stroke-width:1;stroke-dasharray:7,7;"/><polygon fill="#333333" points="891.92,312.3237,885.2809,305.049,887.34,310.3178,882.0713,312.377,891.92,312.3237" style="stroke:#333333;stroke-width:1;"/><text fill="#000000" font-family="sans-serif" font-size="13" lengthAdjust="spacing" textLength="113.5469" x="760" y="250.3206">creates / updates</text></g><!--link Stage2Service to Stage2Data--><g class="link" data-entity-1="ent0019" data-entity-2="ent0012" data-link-type="dependency" data-source-line="136" id="lnk30"><path codeLine="136" d="M769.2,168.9237 C1048.98,197.0337 1516.25,246.3837 1593,269.7537 C1638.62,283.6437 1680.964,304.3261 1719.064,325.8161" fill="none" id="Stage2Service-to-Stage2Data" style="stroke:#333333;stroke-width:1;stroke-dasharray:7,7;"/><polygon fill="#333333" points="1724.29,328.7637,1718.4161,320.8582,1719.935,326.3073,1714.4859,327.8262,1724.29,328.7637" style="stroke:#333333;stroke-width:1;"/><text fill="#000000" font-family="sans-serif" font-size="13" lengthAdjust="spacing" textLength="113.5469" x="1552" y="250.3206">creates / updates</text></g><?plantuml-src hLPVRzis47_NfpXuBswRU8dJe8FH1MXYPokmeC4oz2KD15eyErmfKIEfPCPGe1zYdt2VP4TAiYc9JWfij1-akn_lpuztHvdFeYYPPZaiMVPvhLLLy0ibbORlBlrAp1R1SSKgQIzLOHl8aLy199FCc6S1FoFZgC_x3XT7xjS7dojDu0Rosgy1vDdGcTRgiL6U-1KeIzhErZYqSkf-4M0OqJk_Xg2dI2YKVLOVosc-UDD7XQ5S-9KaLbY9S5DgKLYOmZzV_uOBHnFC1LlJpa_5ZQK8uNX64fEf1zGRU0MrS3g3IsIsqWXpN8b2MA6A96coWb6p5MwoUyoP6S5VIGAq_47KDeulxfbzNvILXRTlpvd1AyLHdfqH59hrAaTZdA4P6Akz-ClGphLM6I9_njHAwSmPMYebuKUuPD9WQ_5B9F95laJEaSESMHQDtob23yOI8IQ8rKipoZAz5yOgecy6lz3JhSlygaxjReVKLE-Y875AR6iNwqegPdU0KaZ9jFCm5vcz9JS7SErbYyBgJM2gr8fNcKqVXA5pIRdAgXpfc6VmeNGdnUJjzSVvtP3H8B8mDQqa3XAZqgnjTiHMqA5PbfVx3Ys8kCDUFEUXbwwnZ_FGI5tJlOY8ZAN4F7NdWtaiPARNQ5DMSO65BnB7xqvV6TGfnVKuq9Wgozo1vMYroCn0xt9ALtMZcFRqoVTT9q4IC6h2FG3D7bDJvJdpzHEmCApQQTjlrAVFrk_qDxLUIspRU6_ZO2coLF0-QKrM4GqMZFZcJQ_jwThfjtMFSxxbPK4l0J469MOM-PRWD6U5M57rgNR7LIi86gGJYpCPHZ7Cfc3veA8ucamBtqbxQDd6tD0RSTqI_tzwZr3Vj81GMjZDi8VpKkAVNKqdoYw3tr0NNXmBsol-0tETSaVz8AZpUdNzxdsZe6hEQG9Ax9QodyLrpYw2iTaOcWW7q8pd0sZkcmCWSVcY7o6zq52bc7ZC28sPlBIxhTr9u0QCbFdOQL7xp1p8pTkVjFfZtztsT3wbk_be_BYynlJoE_N3DebO38LpZMdvm5ju1nLfqwS3s5fi3ozgjXwoVjgqmB6ndkUcY0vWDqv8M5VnqCQo4fBlkhmsqi-0_i7z_FBm44P7aydBKNYt3H2lH-6z53DmF7ANJMDxkbETJYO_ZFmSIVmmySAJoUHqr7RuO4iTJhUpabwZUU2n1xPcacv9J2PdGS7Fe5VSdufekIRTO-qRYU-9U0uO8jVqwMAfSx-7gkJkAU8b826s8N7VgJIrh5Kvg5MV7O1pEdiBomtqY-35XBI_uWgrkxovWp0fWQj7nm3I9x0l4mFZayCt1CQ2-u_YVm40?></g></svg>