<svg xmlns="http://www.w3.org/2000/svg" xmlns:xlink="http://www.w3.org/1999/xlink" contentStyleType="text/css" data-diagram-type="CLASS" height="647px" preserveAspectRatio="none" style="width:3309px;height:647px;background:#FFFFFF;" version="1.1" viewBox="0 0 3309 647" width="3309px" zoomAndPan="magnify"><?plantuml 1.2026.3beta6?><defs/><g><g class="title" data-source-line="15"><text fill="#000000" font-family="sans-serif" font-size="14" font-weight="700" lengthAdjust="spacing" textLength="199.7188" x="1551.1608" y="22.9951">Sprint 4 &#8212; Class Diagram</text><text fill="#000000" font-family="sans-serif" font-size="14" font-weight="700" lengthAdjust="spacing" textLength="392.3008" x="1454.8698" y="39.292">Stage 6: Master Build Plan + Stage 7: Code Forge</text></g><!--cluster Stage 6--><g class="cluster" data-qualified-name="Stage 6" data-source-line="17" id="ent0002"><path d="M8.5,59.5938 L69.8545,59.5938 A3.75,3.75 0 0 1 72.3545,62.0938 L79.3545,81.8906 L1070.5,81.8906 A2.5,2.5 0 0 1 1073,84.3906 L1073,630.2938 A2.5,2.5 0 0 1 1070.5,632.7938 L8.5,632.7938 A2.5,2.5 0 0 1 6,630.2938 L6,62.0938 A2.5,2.5 0 0 1 8.5,59.5938" fill="#F5F5F5" style="stroke:#AAAAAA;stroke-width:1.5;"/><line style="stroke:#AAAAAA;stroke-width:1.5;" x1="6" x2="79.3545" y1="81.8906" y2="81.8906"/><text fill="#000000" font-family="sans-serif" font-size="14" font-weight="700" lengthAdjust="spacing" textLength="60.3545" x="10" y="74.5889">Stage 6</text></g><!--cluster Stage 7--><g class="cluster" data-qualified-name="Stage 7" data-source-line="69" id="ent0009"><path d="M1808.5,63.7237 L1869.8545,63.7237 A3.75,3.75 0 0 1 1872.3545,66.2238 L1879.3545,86.0206 L2764.5,86.0206 A2.5,2.5 0 0 1 2767,88.5206 L2767,573.2538 A2.5,2.5 0 0 1 2764.5,575.7538 L1808.5,575.7538 A2.5,2.5 0 0 1 1806,573.2538 L1806,66.2238 A2.5,2.5 0 0 1 1808.5,63.7237" fill="#F5F5F5" style="stroke:#AAAAAA;stroke-width:1.5;"/><line style="stroke:#AAAAAA;stroke-width:1.5;" x1="1806" x2="1879.3545" y1="86.0206" y2="86.0206"/><text fill="#000000" font-family="sans-serif" font-size="14" font-weight="700" lengthAdjust="spacing" textLength="60.3545" x="1810" y="78.7189">Stage 7</text></g><!--cluster AI Service--><g class="cluster" data-qualified-name="AI Service" data-source-line="111" id="ent0015"><path d="M1360.5,423.7338 L1440.6191,423.7338 A3.75,3.75 0 0 1 1443.1191,426.2338 L1450.1191,446.0306 L1779.5,446.0306 A2.5,2.5 0 0 1 1782,448.5306 L1782,561.0938 A2.5,2.5 0 0 1 1779.5,563.5938 L1360.5,563.5938 A2.5,2.5 0 0 1 1358,561.0938 L1358,426.2338 A2.5,2.5 0 0 1 1360.5,423.7338" fill="#F5F5F5" style="stroke:#AAAAAA;stroke-width:1.5;"/><line style="stroke:#AAAAAA;stroke-width:1.5;" x1="1358" x2="1450.1191" y1="446.0306" y2="446.0306"/><text fill="#000000" font-family="sans-serif" font-size="14" font-weight="700" lengthAdjust="spacing" textLength="79.1191" x="1362" y="438.7289">AI Service</text></g><!--class Stage6EditTask--><g class="entity" data-qualified-name="Stage 6.Stage6EditTask" data-source-line="19" id="ent0003"><rect fill="#FFFFFF" height="88.8594" rx="2.5" ry="2.5" style="stroke:#444444;stroke-width:0.5;" width="141.0059" x="22.5" y="151.6338"/><ellipse cx="37.5" cy="171.7666" fill="#2E5233" rx="11" ry="11" style="stroke:#E7E7E7;stroke-width:1;"/><path d="M40.4688,177.4072 Q39.8906,177.7041 39.25,177.8447 Q38.6094,178.0009 37.9063,178.0009 Q35.4063,178.0009 34.0781,176.3603 Q32.7656,174.7041 32.7656,171.5791 Q32.7656,168.4541 34.0781,166.7978 Q35.4063,165.1416 37.9063,165.1416 Q38.6094,165.1416 39.25,165.2978 Q39.9063,165.4541 40.4688,165.7509 L40.4688,168.4697 Q39.8438,167.8916 39.25,167.6259 Q38.6563,167.3447 38.0313,167.3447 Q36.6875,167.3447 36,168.4228 Q35.3125,169.4853 35.3125,171.5791 Q35.3125,173.6728 36,174.7509 Q36.6875,175.8134 38.0313,175.8134 Q38.6563,175.8134 39.25,175.5478 Q39.8438,175.2666 40.4688,174.6884 L40.4688,177.4072 Z " fill="#000000"/><text fill="#000000" font-family="sans-serif" font-size="12" font-style="italic" lengthAdjust="spacing" textLength="79.9336" x="66.0361" y="167.7724">&#171;BaseModel&#187;</text><text fill="#000000" font-family="sans-serif" font-size="14" lengthAdjust="spacing" textLength="109.0059" x="51.5" y="183.5976">Stage6EditTask</text><line style="stroke:#444444;stroke-width:0.5;" x1="23.5" x2="162.5059" y1="191.8994" y2="191.8994"/><g data-visibility-modifier="PUBLIC_FIELD"><ellipse cx="33.5" cy="205.5478" fill="none" rx="3" ry="3" style="stroke:#038048;stroke-width:1;"/></g><text fill="#000000" font-family="sans-serif" font-size="14" lengthAdjust="spacing" textLength="81.4023" x="42.5" y="208.8945">task_id : str</text><g data-visibility-modifier="PUBLIC_FIELD"><ellipse cx="33.5" cy="221.8447" fill="none" rx="3" ry="3" style="stroke:#038048;stroke-width:1;"/></g><text fill="#000000" font-family="sans-serif" font-size="14" lengthAdjust="spacing" textLength="98.0957" x="42.5" y="225.1914">updates : Dict</text><line style="stroke:#444444;stroke-width:0.5;" x1="23.5" x2="162.5059" y1="232.4931" y2="232.4931"/></g><!--class Stage6EditManifest--><g class="entity" data-qualified-name="Stage 6.Stage6EditManifest" data-source-line="24" id="ent0004"><rect fill="#FFFFFF" height="72.5625" rx="2.5" ry="2.5" style="stroke:#444444;stroke-width:0.5;" width="168.2197" x="198.89" y="159.7738"/><ellipse cx="213.89" cy="179.9066" fill="#2E5233" rx="11" ry="11" style="stroke:#E7E7E7;stroke-width:1;"/><path d="M216.8588,185.5472 Q216.2806,185.8441 215.64,185.9847 Q214.9994,186.1409 214.2963,186.1409 Q211.7963,186.1409 210.4681,184.5003 Q209.1556,182.8441 209.1556,179.7191 Q209.1556,176.5941 210.4681,174.9378 Q211.7963,173.2816 214.2963,173.2816 Q214.9994,173.2816 215.64,173.4378 Q216.2963,173.5941 216.8588,173.8909 L216.8588,176.6097 Q216.2338,176.0316 215.64,175.7659 Q215.0463,175.4847 214.4213,175.4847 Q213.0775,175.4847 212.39,176.5628 Q211.7025,177.6253 211.7025,179.7191 Q211.7025,181.8128 212.39,182.8909 Q213.0775,183.9534 214.4213,183.9534 Q215.0463,183.9534 215.64,183.6878 Q216.2338,183.4066 216.8588,182.8284 L216.8588,185.5472 Z " fill="#000000"/><text fill="#000000" font-family="sans-serif" font-size="12" font-style="italic" lengthAdjust="spacing" textLength="79.9336" x="256.0331" y="175.9124">&#171;BaseModel&#187;</text><text fill="#000000" font-family="sans-serif" font-size="14" lengthAdjust="spacing" textLength="136.2197" x="227.89" y="191.7376">Stage6EditManifest</text><line style="stroke:#444444;stroke-width:0.5;" x1="199.89" x2="366.1097" y1="200.0394" y2="200.0394"/><g data-visibility-modifier="PUBLIC_FIELD"><ellipse cx="209.89" cy="213.6878" fill="none" rx="3" ry="3" style="stroke:#038048;stroke-width:1;"/></g><text fill="#000000" font-family="sans-serif" font-size="14" lengthAdjust="spacing" textLength="98.0957" x="218.89" y="217.0345">updates : Dict</text><line style="stroke:#444444;stroke-width:0.5;" x1="199.89" x2="366.1097" y1="224.3363" y2="224.3363"/></g><!--class BuildTask--><g class="entity" data-qualified-name="Stage 6.BuildTask" data-source-line="28" id="ent0005"><rect fill="#FFFFFF" height="227.2656" rx="2.5" ry="2.5" style="stroke:#444444;stroke-width:0.5;" width="191.293" x="22.35" y="389.5238"/><ellipse cx="79.9086" cy="405.5238" fill="#2E5233" rx="11" ry="11" style="stroke:#E7E7E7;stroke-width:1;"/><path d="M82.8773,411.1644 Q82.2992,411.4613 81.6586,411.6019 Q81.018,411.7581 80.3148,411.7581 Q77.8148,411.7581 76.4867,410.1175 Q75.1742,408.4613 75.1742,405.3363 Q75.1742,402.2113 76.4867,400.555 Q77.8148,398.8988 80.3148,398.8988 Q81.018,398.8988 81.6586,399.055 Q82.3148,399.2113 82.8773,399.5081 L82.8773,402.2269 Q82.2523,401.6488 81.6586,401.3831 Q81.0648,401.1019 80.4398,401.1019 Q79.0961,401.1019 78.4086,402.18 Q77.7211,403.2425 77.7211,405.3363 Q77.7211,407.43 78.4086,408.5081 Q79.0961,409.5706 80.4398,409.5706 Q81.0648,409.5706 81.6586,409.305 Q82.2523,409.0238 82.8773,408.4456 L82.8773,411.1644 Z " fill="#000000"/><text fill="#000000" font-family="sans-serif" font-size="14" lengthAdjust="spacing" textLength="67.6758" x="100.4086" y="410.3704">BuildTask</text><line style="stroke:#444444;stroke-width:0.5;" x1="23.35" x2="212.643" y1="421.5238" y2="421.5238"/><g data-visibility-modifier="PUBLIC_FIELD"><ellipse cx="33.35" cy="435.1722" fill="none" rx="3" ry="3" style="stroke:#038048;stroke-width:1;"/></g><text fill="#000000" font-family="sans-serif" font-size="14" lengthAdjust="spacing" textLength="44.9326" x="42.35" y="438.5189">id : str</text><g data-visibility-modifier="PUBLIC_FIELD"><ellipse cx="33.35" cy="451.4691" fill="none" rx="3" ry="3" style="stroke:#038048;stroke-width:1;"/></g><text fill="#000000" font-family="sans-serif" font-size="14" lengthAdjust="spacing" textLength="87.3223" x="42.35" y="454.8157">story_id : str</text><g data-visibility-modifier="PUBLIC_FIELD"><ellipse cx="33.35" cy="467.7659" fill="none" rx="3" ry="3" style="stroke:#038048;stroke-width:1;"/></g><text fill="#000000" font-family="sans-serif" font-size="14" lengthAdjust="spacing" textLength="59.5273" x="42.35" y="471.1126">title : str</text><g data-visibility-modifier="PUBLIC_FIELD"><ellipse cx="33.35" cy="484.0628" fill="none" rx="3" ry="3" style="stroke:#038048;stroke-width:1;"/></g><text fill="#000000" font-family="sans-serif" font-size="14" lengthAdjust="spacing" textLength="109.9971" x="42.35" y="487.4095">description : str</text><g data-visibility-modifier="PUBLIC_FIELD"><ellipse cx="33.35" cy="500.3597" fill="none" rx="3" ry="3" style="stroke:#038048;stroke-width:1;"/></g><text fill="#000000" font-family="sans-serif" font-size="14" lengthAdjust="spacing" textLength="92.3057" x="42.35" y="503.7064">file_path : str</text><g data-visibility-modifier="PUBLIC_FIELD"><ellipse cx="33.35" cy="516.6566" fill="none" rx="3" ry="3" style="stroke:#038048;stroke-width:1;"/></g><text fill="#000000" font-family="sans-serif" font-size="14" lengthAdjust="spacing" textLength="149.6318" x="42.35" y="520.0032">component_type : str</text><g data-visibility-modifier="PUBLIC_FIELD"><ellipse cx="33.35" cy="532.9534" fill="none" rx="3" ry="3" style="stroke:#038048;stroke-width:1;"/></g><text fill="#000000" font-family="sans-serif" font-size="14" lengthAdjust="spacing" textLength="157.5479" x="42.35" y="536.3001">api_mapping : List[str]</text><g data-visibility-modifier="PUBLIC_FIELD"><ellipse cx="33.35" cy="549.2503" fill="none" rx="3" ry="3" style="stroke:#038048;stroke-width:1;"/></g><text fill="#000000" font-family="sans-serif" font-size="14" lengthAdjust="spacing" textLength="153.9658" x="42.35" y="552.597">db_mapping : List[str]</text><g data-visibility-modifier="PUBLIC_FIELD"><ellipse cx="33.35" cy="565.5472" fill="none" rx="3" ry="3" style="stroke:#038048;stroke-width:1;"/></g><text fill="#000000" font-family="sans-serif" font-size="14" lengthAdjust="spacing" textLength="165.293" x="42.35" y="568.8939">dependencies : List[str]</text><g data-visibility-modifier="PUBLIC_FIELD"><ellipse cx="33.35" cy="581.8441" fill="none" rx="3" ry="3" style="stroke:#038048;stroke-width:1;"/></g><text fill="#000000" font-family="sans-serif" font-size="14" lengthAdjust="spacing" textLength="82.6738" x="42.35" y="585.1907">priority : str</text><g data-visibility-modifier="PUBLIC_FIELD"><ellipse cx="33.35" cy="598.1409" fill="none" rx="3" ry="3" style="stroke:#038048;stroke-width:1;"/></g><text fill="#000000" font-family="sans-serif" font-size="14" lengthAdjust="spacing" textLength="148.7227" x="42.35" y="601.4876">estimated_hours : int</text><line style="stroke:#444444;stroke-width:0.5;" x1="23.35" x2="212.643" y1="608.7894" y2="608.7894"/></g><!--class DirectoryNode--><g class="entity" data-qualified-name="Stage 6.DirectoryNode" data-source-line="42" id="ent0006"><rect fill="#FFFFFF" height="113.1875" rx="2.5" ry="2.5" style="stroke:#444444;stroke-width:0.5;" width="232.8623" x="402.57" y="139.4638"/><ellipse cx="464.0661" cy="155.4638" fill="#2E5233" rx="11" ry="11" style="stroke:#E7E7E7;stroke-width:1;"/><path d="M467.0348,161.1044 Q466.4567,161.4013 465.8161,161.5419 Q465.1755,161.6981 464.4723,161.6981 Q461.9723,161.6981 460.6442,160.0575 Q459.3317,158.4013 459.3317,155.2763 Q459.3317,152.1513 460.6442,150.495 Q461.9723,148.8388 464.4723,148.8388 Q465.1755,148.8388 465.8161,148.995 Q466.4723,149.1513 467.0348,149.4481 L467.0348,152.1669 Q466.4098,151.5888 465.8161,151.3231 Q465.2223,151.0419 464.5973,151.0419 Q463.2536,151.0419 462.5661,152.12 Q461.8786,153.1825 461.8786,155.2763 Q461.8786,157.37 462.5661,158.4481 Q463.2536,159.5106 464.5973,159.5106 Q465.2223,159.5106 465.8161,159.245 Q466.4098,158.9638 467.0348,158.3856 L467.0348,161.1044 Z " fill="#000000"/><text fill="#000000" font-family="sans-serif" font-size="14" lengthAdjust="spacing" textLength="101.3701" x="484.5661" y="160.3104">DirectoryNode</text><line style="stroke:#444444;stroke-width:0.5;" x1="403.57" x2="634.4323" y1="171.4638" y2="171.4638"/><g data-visibility-modifier="PUBLIC_FIELD"><ellipse cx="413.57" cy="185.1122" fill="none" rx="3" ry="3" style="stroke:#038048;stroke-width:1;"/></g><text fill="#000000" font-family="sans-serif" font-size="14" lengthAdjust="spacing" textLength="63.4307" x="422.57" y="188.4589">type : str</text><g data-visibility-modifier="PUBLIC_FIELD"><ellipse cx="413.57" cy="201.4091" fill="none" rx="3" ry="3" style="stroke:#038048;stroke-width:1;"/></g><text fill="#000000" font-family="sans-serif" font-size="14" lengthAdjust="spacing" textLength="71.8594" x="422.57" y="204.7557">name : str</text><g data-visibility-modifier="PUBLIC_FIELD"><ellipse cx="413.57" cy="217.7059" fill="none" rx="3" ry="3" style="stroke:#038048;stroke-width:1;"/></g><text fill="#000000" font-family="sans-serif" font-size="14" lengthAdjust="spacing" textLength="89.0313" x="422.57" y="221.0526">purpose : str</text><g data-visibility-modifier="PUBLIC_FIELD"><ellipse cx="413.57" cy="234.0028" fill="none" rx="3" ry="3" style="stroke:#038048;stroke-width:1;"/></g><text fill="#000000" font-family="sans-serif" font-size="14" lengthAdjust="spacing" textLength="206.8623" x="422.57" y="237.3495">children : List[DirectoryNode]</text><line style="stroke:#444444;stroke-width:0.5;" x1="403.57" x2="634.4323" y1="244.6513" y2="244.6513"/></g><!--class ValidationResult--><g class="entity" data-qualified-name="Stage 6.ValidationResult" data-source-line="49" id="ent0007"><rect fill="#FFFFFF" height="96.8906" rx="2.5" ry="2.5" style="stroke:#444444;stroke-width:0.5;" width="157.1543" x="248.42" y="454.7138"/><ellipse cx="268.392" cy="470.7138" fill="#2E5233" rx="11" ry="11" style="stroke:#E7E7E7;stroke-width:1;"/><path d="M271.3607,476.3544 Q270.7826,476.6513 270.142,476.7919 Q269.5013,476.9481 268.7982,476.9481 Q266.2982,476.9481 264.9701,475.3075 Q263.6576,473.6513 263.6576,470.5263 Q263.6576,467.4013 264.9701,465.745 Q266.2982,464.0888 268.7982,464.0888 Q269.5013,464.0888 270.142,464.245 Q270.7982,464.4013 271.3607,464.6981 L271.3607,467.4169 Q270.7357,466.8388 270.142,466.5731 Q269.5482,466.2919 268.9232,466.2919 Q267.5795,466.2919 266.892,467.37 Q266.2045,468.4325 266.2045,470.5263 Q266.2045,472.62 266.892,473.6981 Q267.5795,474.7606 268.9232,474.7606 Q269.5482,474.7606 270.142,474.495 Q270.7357,474.2138 271.3607,473.6356 L271.3607,476.3544 Z " fill="#000000"/><text fill="#000000" font-family="sans-serif" font-size="14" lengthAdjust="spacing" textLength="114.1055" x="283.4969" y="475.5604">ValidationResult</text><line style="stroke:#444444;stroke-width:0.5;" x1="249.42" x2="404.5743" y1="486.7138" y2="486.7138"/><g data-visibility-modifier="PUBLIC_FIELD"><ellipse cx="259.42" cy="500.3622" fill="none" rx="3" ry="3" style="stroke:#038048;stroke-width:1;"/></g><text fill="#000000" font-family="sans-serif" font-size="14" lengthAdjust="spacing" textLength="95.2383" x="268.42" y="503.7089">is_valid : bool</text><g data-visibility-modifier="PUBLIC_FIELD"><ellipse cx="259.42" cy="516.6591" fill="none" rx="3" ry="3" style="stroke:#038048;stroke-width:1;"/></g><text fill="#000000" font-family="sans-serif" font-size="14" lengthAdjust="spacing" textLength="109.293" x="268.42" y="520.0057">errors : List[str]</text><g data-visibility-modifier="PUBLIC_FIELD"><ellipse cx="259.42" cy="532.9559" fill="none" rx="3" ry="3" style="stroke:#038048;stroke-width:1;"/></g><text fill="#000000" font-family="sans-serif" font-size="14" lengthAdjust="spacing" textLength="131.1543" x="268.42" y="536.3026">warnings : List[str]</text><line style="stroke:#444444;stroke-width:0.5;" x1="249.42" x2="404.5743" y1="543.6044" y2="543.6044"/></g><!--class Stage6Service--><g class="entity" data-qualified-name="Stage 6.Stage6Service" data-source-line="55" id="ent0008"><rect fill="#FFFFFF" height="202.9375" rx="2.5" ry="2.5" style="stroke:#444444;stroke-width:0.5;" width="304.2773" x="752.86" y="94.5938"/><ellipse cx="850.1969" cy="114.7266" fill="#2E5233" rx="11" ry="11" style="stroke:#E7E7E7;stroke-width:1;"/><path d="M853.1657,120.3672 Q852.5875,120.6641 851.9469,120.8047 Q851.3063,120.9609 850.6032,120.9609 Q848.1032,120.9609 846.775,119.3203 Q845.4625,117.6641 845.4625,114.5391 Q845.4625,111.4141 846.775,109.7578 Q848.1032,108.1016 850.6032,108.1016 Q851.3063,108.1016 851.9469,108.2578 Q852.6032,108.4141 853.1657,108.7109 L853.1657,111.4297 Q852.5407,110.8516 851.9469,110.5859 Q851.3532,110.3047 850.7282,110.3047 Q849.3844,110.3047 848.6969,111.3828 Q848.0094,112.4453 848.0094,114.5391 Q848.0094,116.6328 848.6969,117.7109 Q849.3844,118.7734 850.7282,118.7734 Q851.3532,118.7734 851.9469,118.5078 Q852.5407,118.2266 853.1657,117.6484 L853.1657,120.3672 Z " fill="#000000"/><text fill="#000000" font-family="sans-serif" font-size="12" font-style="italic" lengthAdjust="spacing" textLength="59.6543" x="891.4215" y="110.7324">&#171;module&#187;</text><text fill="#000000" font-family="sans-serif" font-size="14" lengthAdjust="spacing" textLength="101.1035" x="870.6969" y="126.5576">Stage6Service</text><line style="stroke:#444444;stroke-width:0.5;" x1="753.86" x2="1056.1373" y1="134.8594" y2="134.8594"/><g data-visibility-modifier="PUBLIC_FIELD"><ellipse cx="763.86" cy="148.5078" fill="none" rx="3" ry="3" style="stroke:#038048;stroke-width:1;"/></g><text fill="#000000" font-family="sans-serif" font-size="14" lengthAdjust="spacing" textLength="194.3525" x="772.86" y="151.8545">RATE_LIMIT_DELAY : int = 5</text><g data-visibility-modifier="PUBLIC_FIELD"><ellipse cx="763.86" cy="164.8047" fill="none" rx="3" ry="3" style="stroke:#038048;stroke-width:1;"/></g><text fill="#000000" font-family="sans-serif" font-size="14" lengthAdjust="spacing" textLength="150.0625" x="772.86" y="168.1514">CHUNK_SIZE : int = 5</text><line style="stroke:#444444;stroke-width:0.5;" x1="753.86" x2="1056.1373" y1="175.4531" y2="175.4531"/><g data-visibility-modifier="PUBLIC_METHOD"><ellipse cx="763.86" cy="189.1016" fill="#84BE84" rx="3" ry="3" style="stroke:#038048;stroke-width:1;"/></g><text fill="#000000" font-family="sans-serif" font-size="14" lengthAdjust="spacing" textLength="258.3164" x="772.86" y="192.4482">generate_master_plan(project) : Dict</text><g data-visibility-modifier="PUBLIC_METHOD"><ellipse cx="763.86" cy="205.3984" fill="#84BE84" rx="3" ry="3" style="stroke:#038048;stroke-width:1;"/></g><text fill="#000000" font-family="sans-serif" font-size="14" lengthAdjust="spacing" textLength="215.7764" x="772.86" y="208.7451">validate_manifest(stage) : Dict</text><g data-visibility-modifier="PUBLIC_METHOD"><ellipse cx="763.86" cy="221.6953" fill="#84BE84" rx="3" ry="3" style="stroke:#038048;stroke-width:1;"/></g><text fill="#000000" font-family="sans-serif" font-size="14" lengthAdjust="spacing" textLength="278.2773" x="772.86" y="225.042">edit_task(stage, task_id, updates) : Dict</text><g data-visibility-modifier="PUBLIC_METHOD"><ellipse cx="763.86" cy="237.9922" fill="#84BE84" rx="3" ry="3" style="stroke:#038048;stroke-width:1;"/></g><text fill="#000000" font-family="sans-serif" font-size="14" lengthAdjust="spacing" textLength="251.9658" x="772.86" y="241.3389">edit_manifest(stage, updates) : Dict</text><g data-visibility-modifier="PUBLIC_METHOD"><ellipse cx="763.86" cy="254.2891" fill="#84BE84" rx="3" ry="3" style="stroke:#038048;stroke-width:1;"/></g><text fill="#000000" font-family="sans-serif" font-size="14" lengthAdjust="spacing" textLength="212.9121" x="772.86" y="257.6357">confirm_manifest(stage) : Dict</text><g data-visibility-modifier="PUBLIC_METHOD"><ellipse cx="763.86" cy="270.5859" fill="#84BE84" rx="3" ry="3" style="stroke:#038048;stroke-width:1;"/></g><text fill="#000000" font-family="sans-serif" font-size="14" lengthAdjust="spacing" textLength="257.25" x="772.86" y="273.9326">normalize_task_ids(tasks) : List[Dict]</text><g data-visibility-modifier="PUBLIC_METHOD"><ellipse cx="763.86" cy="286.8828" fill="#84BE84" rx="3" ry="3" style="stroke:#038048;stroke-width:1;"/></g><text fill="#000000" font-family="sans-serif" font-size="14" lengthAdjust="spacing" textLength="233.2012" x="772.86" y="290.2295">chunk_list(data, size) : Generator</text></g><!--class Stage7GenerateRequest--><g class="entity" data-qualified-name="Stage 7.Stage7GenerateRequest" data-source-line="71" id="ent0010"><rect fill="#FFFFFF" height="72.5625" rx="2.5" ry="2.5" style="stroke:#444444;stroke-width:0.5;" width="204.2451" x="1821.88" y="159.7738"/><ellipse cx="1836.88" cy="179.9066" fill="#2E5233" rx="11" ry="11" style="stroke:#E7E7E7;stroke-width:1;"/><path d="M1839.8488,185.5472 Q1839.2706,185.8441 1838.63,185.9847 Q1837.9894,186.1409 1837.2863,186.1409 Q1834.7863,186.1409 1833.4581,184.5003 Q1832.1456,182.8441 1832.1456,179.7191 Q1832.1456,176.5941 1833.4581,174.9378 Q1834.7863,173.2816 1837.2863,173.2816 Q1837.9894,173.2816 1838.63,173.4378 Q1839.2863,173.5941 1839.8488,173.8909 L1839.8488,176.6097 Q1839.2238,176.0316 1838.63,175.7659 Q1838.0363,175.4847 1837.4113,175.4847 Q1836.0675,175.4847 1835.38,176.5628 Q1834.6925,177.6253 1834.6925,179.7191 Q1834.6925,181.8128 1835.38,182.8909 Q1836.0675,183.9534 1837.4113,183.9534 Q1838.0363,183.9534 1838.63,183.6878 Q1839.2238,183.4066 1839.8488,182.8284 L1839.8488,185.5472 Z " fill="#000000"/><text fill="#000000" font-family="sans-serif" font-size="12" font-style="italic" lengthAdjust="spacing" textLength="79.9336" x="1897.0358" y="175.9124">&#171;BaseModel&#187;</text><text fill="#000000" font-family="sans-serif" font-size="14" lengthAdjust="spacing" textLength="172.2451" x="1850.88" y="191.7376">Stage7GenerateRequest</text><line style="stroke:#444444;stroke-width:0.5;" x1="1822.88" x2="2025.1251" y1="200.0394" y2="200.0394"/><g data-visibility-modifier="PUBLIC_FIELD"><ellipse cx="1832.88" cy="213.6878" fill="none" rx="3" ry="3" style="stroke:#038048;stroke-width:1;"/></g><text fill="#000000" font-family="sans-serif" font-size="14" lengthAdjust="spacing" textLength="153.9316" x="1841.88" y="217.0345">confirm : bool = False</text><line style="stroke:#444444;stroke-width:0.5;" x1="1822.88" x2="2025.1251" y1="224.3363" y2="224.3363"/></g><!--class GeneratedFile--><g class="entity" data-qualified-name="Stage 7.GeneratedFile" data-source-line="75" id="ent0011"><rect fill="#FFFFFF" height="129.4844" rx="2.5" ry="2.5" style="stroke:#444444;stroke-width:0.5;" width="162.7188" x="2060.64" y="131.3138"/><ellipse cx="2090.0404" cy="147.3138" fill="#2E5233" rx="11" ry="11" style="stroke:#E7E7E7;stroke-width:1;"/><path d="M2093.0092,152.9544 Q2092.4311,153.2513 2091.7904,153.3919 Q2091.1498,153.5481 2090.4467,153.5481 Q2087.9467,153.5481 2086.6186,151.9075 Q2085.3061,150.2513 2085.3061,147.1263 Q2085.3061,144.0013 2086.6186,142.345 Q2087.9467,140.6888 2090.4467,140.6888 Q2091.1498,140.6888 2091.7904,140.845 Q2092.4467,141.0013 2093.0092,141.2981 L2093.0092,144.0169 Q2092.3842,143.4388 2091.7904,143.1731 Q2091.1967,142.8919 2090.5717,142.8919 Q2089.2279,142.8919 2088.5404,143.97 Q2087.8529,145.0325 2087.8529,147.1263 Q2087.8529,149.22 2088.5404,150.2981 Q2089.2279,151.3606 2090.5717,151.3606 Q2091.1967,151.3606 2091.7904,151.095 Q2092.3842,150.8138 2093.0092,150.2356 L2093.0092,152.9544 Z " fill="#000000"/><text fill="#000000" font-family="sans-serif" font-size="14" lengthAdjust="spacing" textLength="98.7178" x="2107.2405" y="152.1604">GeneratedFile</text><line style="stroke:#444444;stroke-width:0.5;" x1="2061.64" x2="2222.3588" y1="163.3138" y2="163.3138"/><g data-visibility-modifier="PUBLIC_FIELD"><ellipse cx="2071.64" cy="176.9622" fill="none" rx="3" ry="3" style="stroke:#038048;stroke-width:1;"/></g><text fill="#000000" font-family="sans-serif" font-size="14" lengthAdjust="spacing" textLength="63.9844" x="2080.64" y="180.3089">path : str</text><g data-visibility-modifier="PUBLIC_FIELD"><ellipse cx="2071.64" cy="193.2591" fill="none" rx="3" ry="3" style="stroke:#038048;stroke-width:1;"/></g><text fill="#000000" font-family="sans-serif" font-size="14" lengthAdjust="spacing" textLength="85.7568" x="2080.64" y="196.6057">content : str</text><g data-visibility-modifier="PUBLIC_FIELD"><ellipse cx="2071.64" cy="209.5559" fill="none" rx="3" ry="3" style="stroke:#038048;stroke-width:1;"/></g><text fill="#000000" font-family="sans-serif" font-size="14" lengthAdjust="spacing" textLength="97.3369" x="2080.64" y="212.9026">language : str</text><g data-visibility-modifier="PUBLIC_FIELD"><ellipse cx="2071.64" cy="225.8528" fill="none" rx="3" ry="3" style="stroke:#038048;stroke-width:1;"/></g><text fill="#000000" font-family="sans-serif" font-size="14" lengthAdjust="spacing" textLength="81.4023" x="2080.64" y="229.1995">task_id : str</text><g data-visibility-modifier="PUBLIC_FIELD"><ellipse cx="2071.64" cy="242.1497" fill="none" rx="3" ry="3" style="stroke:#038048;stroke-width:1;"/></g><text fill="#000000" font-family="sans-serif" font-size="14" lengthAdjust="spacing" textLength="136.7188" x="2080.64" y="245.4964">error : Optional[str]</text><line style="stroke:#444444;stroke-width:0.5;" x1="2061.64" x2="2222.3588" y1="252.7981" y2="252.7981"/></g><!--class TestCase--><g class="entity" data-qualified-name="Stage 7.TestCase" data-source-line="83" id="ent0012"><rect fill="#FFFFFF" height="194.6719" rx="2.5" ry="2.5" style="stroke:#444444;stroke-width:0.5;" width="191.6826" x="2559.16" y="98.7238"/><ellipse cx="2618.6463" cy="114.7238" fill="#2E5233" rx="11" ry="11" style="stroke:#E7E7E7;stroke-width:1;"/><path d="M2621.6151,120.3644 Q2621.037,120.6613 2620.3963,120.8019 Q2619.7557,120.9581 2619.0526,120.9581 Q2616.5526,120.9581 2615.2245,119.3175 Q2613.912,117.6613 2613.912,114.5363 Q2613.912,111.4113 2615.2245,109.755 Q2616.5526,108.0988 2619.0526,108.0988 Q2619.7557,108.0988 2620.3963,108.255 Q2621.0526,108.4113 2621.6151,108.7081 L2621.6151,111.4269 Q2620.9901,110.8488 2620.3963,110.5831 Q2619.8026,110.3019 2619.1776,110.3019 Q2617.8338,110.3019 2617.1463,111.38 Q2616.4588,112.4425 2616.4588,114.5363 Q2616.4588,116.63 2617.1463,117.7081 Q2617.8338,118.7706 2619.1776,118.7706 Q2619.8026,118.7706 2620.3963,118.505 Q2620.9901,118.2238 2621.6151,117.6456 L2621.6151,120.3644 Z " fill="#000000"/><text fill="#000000" font-family="sans-serif" font-size="14" lengthAdjust="spacing" textLength="64.21" x="2639.1463" y="119.5704">TestCase</text><line style="stroke:#444444;stroke-width:0.5;" x1="2560.16" x2="2749.8426" y1="130.7238" y2="130.7238"/><g data-visibility-modifier="PUBLIC_FIELD"><ellipse cx="2570.16" cy="144.3722" fill="none" rx="3" ry="3" style="stroke:#038048;stroke-width:1;"/></g><text fill="#000000" font-family="sans-serif" font-size="14" lengthAdjust="spacing" textLength="44.9326" x="2579.16" y="147.7189">id : str</text><g data-visibility-modifier="PUBLIC_FIELD"><ellipse cx="2570.16" cy="160.6691" fill="none" rx="3" ry="3" style="stroke:#038048;stroke-width:1;"/></g><text fill="#000000" font-family="sans-serif" font-size="14" lengthAdjust="spacing" textLength="71.8594" x="2579.16" y="164.0157">name : str</text><g data-visibility-modifier="PUBLIC_FIELD"><ellipse cx="2570.16" cy="176.9659" fill="none" rx="3" ry="3" style="stroke:#038048;stroke-width:1;"/></g><text fill="#000000" font-family="sans-serif" font-size="14" lengthAdjust="spacing" textLength="87.3223" x="2579.16" y="180.3126">story_id : str</text><g data-visibility-modifier="PUBLIC_FIELD"><ellipse cx="2570.16" cy="193.2628" fill="none" rx="3" ry="3" style="stroke:#038048;stroke-width:1;"/></g><text fill="#000000" font-family="sans-serif" font-size="14" lengthAdjust="spacing" textLength="142.2148" x="2579.16" y="196.6095">failure_criterion : str</text><g data-visibility-modifier="PUBLIC_FIELD"><ellipse cx="2570.16" cy="209.5597" fill="none" rx="3" ry="3" style="stroke:#038048;stroke-width:1;"/></g><text fill="#000000" font-family="sans-serif" font-size="14" lengthAdjust="spacing" textLength="97.3164" x="2579.16" y="212.9064">test_type : str</text><g data-visibility-modifier="PUBLIC_FIELD"><ellipse cx="2570.16" cy="225.8566" fill="none" rx="3" ry="3" style="stroke:#038048;stroke-width:1;"/></g><text fill="#000000" font-family="sans-serif" font-size="14" lengthAdjust="spacing" textLength="99.8047" x="2579.16" y="229.2032">test_code : str</text><g data-visibility-modifier="PUBLIC_FIELD"><ellipse cx="2570.16" cy="242.1534" fill="none" rx="3" ry="3" style="stroke:#038048;stroke-width:1;"/></g><text fill="#000000" font-family="sans-serif" font-size="14" lengthAdjust="spacing" textLength="97.3369" x="2579.16" y="245.5001">language : str</text><g data-visibility-modifier="PUBLIC_FIELD"><ellipse cx="2570.16" cy="258.4503" fill="none" rx="3" ry="3" style="stroke:#038048;stroke-width:1;"/></g><text fill="#000000" font-family="sans-serif" font-size="14" lengthAdjust="spacing" textLength="165.6826" x="2579.16" y="261.797">expected_outcome : str</text><g data-visibility-modifier="PUBLIC_FIELD"><ellipse cx="2570.16" cy="274.7472" fill="none" rx="3" ry="3" style="stroke:#038048;stroke-width:1;"/></g><text fill="#000000" font-family="sans-serif" font-size="14" lengthAdjust="spacing" textLength="75.1748" x="2579.16" y="278.0939">status : str</text><line style="stroke:#444444;stroke-width:0.5;" x1="2560.16" x2="2749.8426" y1="285.3956" y2="285.3956"/></g><!--class TestReport--><g class="entity" data-qualified-name="Stage 7.TestReport" data-source-line="95" id="ent0013"><rect fill="#FFFFFF" height="113.1875" rx="2.5" ry="2.5" style="stroke:#444444;stroke-width:0.5;" width="123.1523" x="1862.42" y="446.5638"/><ellipse cx="1883.7947" cy="462.5638" fill="#2E5233" rx="11" ry="11" style="stroke:#E7E7E7;stroke-width:1;"/><path d="M1886.7635,468.2044 Q1886.1853,468.5013 1885.5447,468.6419 Q1884.9041,468.7981 1884.201,468.7981 Q1881.701,468.7981 1880.3728,467.1575 Q1879.0603,465.5013 1879.0603,462.3763 Q1879.0603,459.2513 1880.3728,457.595 Q1881.701,455.9388 1884.201,455.9388 Q1884.9041,455.9388 1885.5447,456.095 Q1886.201,456.2513 1886.7635,456.5481 L1886.7635,459.2669 Q1886.1385,458.6888 1885.5447,458.4231 Q1884.951,458.1419 1884.326,458.1419 Q1882.9822,458.1419 1882.2947,459.22 Q1881.6072,460.2825 1881.6072,462.3763 Q1881.6072,464.47 1882.2947,465.5481 Q1882.9822,466.6106 1884.326,466.6106 Q1884.951,466.6106 1885.5447,466.345 Q1886.1385,466.0638 1886.7635,465.4856 L1886.7635,468.2044 Z " fill="#000000"/><text fill="#000000" font-family="sans-serif" font-size="14" lengthAdjust="spacing" textLength="76.9863" x="1899.2113" y="467.4104">TestReport</text><line style="stroke:#444444;stroke-width:0.5;" x1="1863.42" x2="1984.5723" y1="478.5638" y2="478.5638"/><g data-visibility-modifier="PUBLIC_FIELD"><ellipse cx="1873.42" cy="492.2122" fill="none" rx="3" ry="3" style="stroke:#038048;stroke-width:1;"/></g><text fill="#000000" font-family="sans-serif" font-size="14" lengthAdjust="spacing" textLength="63.8818" x="1882.42" y="495.5589">total : int</text><g data-visibility-modifier="PUBLIC_FIELD"><ellipse cx="1873.42" cy="508.5091" fill="none" rx="3" ry="3" style="stroke:#038048;stroke-width:1;"/></g><text fill="#000000" font-family="sans-serif" font-size="14" lengthAdjust="spacing" textLength="81.4229" x="1882.42" y="511.8557">passed : int</text><g data-visibility-modifier="PUBLIC_FIELD"><ellipse cx="1873.42" cy="524.8059" fill="none" rx="3" ry="3" style="stroke:#038048;stroke-width:1;"/></g><text fill="#000000" font-family="sans-serif" font-size="14" lengthAdjust="spacing" textLength="70.6563" x="1882.42" y="528.1526">failed : int</text><g data-visibility-modifier="PUBLIC_FIELD"><ellipse cx="1873.42" cy="541.1028" fill="none" rx="3" ry="3" style="stroke:#038048;stroke-width:1;"/></g><text fill="#000000" font-family="sans-serif" font-size="14" lengthAdjust="spacing" textLength="97.1523" x="1882.42" y="544.4495">coverage : str</text><line style="stroke:#444444;stroke-width:0.5;" x1="1863.42" x2="1984.5723" y1="551.7513" y2="551.7513"/></g><!--class Stage7Service--><g class="entity" data-qualified-name="Stage 7.Stage7Service" data-source-line="102" id="ent0014"><rect fill="#FFFFFF" height="121.4531" rx="2.5" ry="2.5" style="stroke:#444444;stroke-width:0.5;" width="266.0303" x="2257.98" y="135.3338"/><ellipse cx="2336.1934" cy="155.4666" fill="#2E5233" rx="11" ry="11" style="stroke:#E7E7E7;stroke-width:1;"/><path d="M2339.1621,161.1072 Q2338.584,161.4041 2337.9434,161.5447 Q2337.3028,161.7009 2336.5996,161.7009 Q2334.0996,161.7009 2332.7715,160.0603 Q2331.459,158.4041 2331.459,155.2791 Q2331.459,152.1541 2332.7715,150.4978 Q2334.0996,148.8416 2336.5996,148.8416 Q2337.3028,148.8416 2337.9434,148.9978 Q2338.5996,149.1541 2339.1621,149.4509 L2339.1621,152.1697 Q2338.5371,151.5916 2337.9434,151.3259 Q2337.3496,151.0447 2336.7246,151.0447 Q2335.3809,151.0447 2334.6934,152.1228 Q2334.0059,153.1853 2334.0059,155.2791 Q2334.0059,157.3728 2334.6934,158.4509 Q2335.3809,159.5134 2336.7246,159.5134 Q2337.3496,159.5134 2337.9434,159.2478 Q2338.5371,158.9666 2339.1621,158.3884 L2339.1621,161.1072 Z " fill="#000000"/><text fill="#000000" font-family="sans-serif" font-size="12" font-style="italic" lengthAdjust="spacing" textLength="59.6543" x="2377.418" y="151.4724">&#171;module&#187;</text><text fill="#000000" font-family="sans-serif" font-size="14" lengthAdjust="spacing" textLength="101.1035" x="2356.6934" y="167.2976">Stage7Service</text><line style="stroke:#444444;stroke-width:0.5;" x1="2258.98" x2="2523.0103" y1="175.5994" y2="175.5994"/><line style="stroke:#444444;stroke-width:0.5;" x1="2258.98" x2="2523.0103" y1="183.5994" y2="183.5994"/><g data-visibility-modifier="PUBLIC_METHOD"><ellipse cx="2268.98" cy="197.2478" fill="#84BE84" rx="3" ry="3" style="stroke:#038048;stroke-width:1;"/></g><text fill="#000000" font-family="sans-serif" font-size="14" lengthAdjust="spacing" textLength="207.9355" x="2277.98" y="200.5945">run_generation(project) : Dict</text><g data-visibility-modifier="PUBLIC_METHOD"><ellipse cx="2268.98" cy="213.5447" fill="#84BE84" rx="3" ry="3" style="stroke:#038048;stroke-width:1;"/></g><text fill="#000000" font-family="sans-serif" font-size="14" lengthAdjust="spacing" textLength="235.5254" x="2277.98" y="216.8914">generate_file(task, context) : Dict</text><g data-visibility-modifier="PUBLIC_METHOD"><ellipse cx="2268.98" cy="229.8416" fill="#84BE84" rx="3" ry="3" style="stroke:#038048;stroke-width:1;"/></g><text fill="#000000" font-family="sans-serif" font-size="14" lengthAdjust="spacing" textLength="240.0303" x="2277.98" y="233.1882">generate_tests(project, files) : List</text><g data-visibility-modifier="PUBLIC_METHOD"><ellipse cx="2268.98" cy="246.1384" fill="#84BE84" rx="3" ry="3" style="stroke:#038048;stroke-width:1;"/></g><text fill="#000000" font-family="sans-serif" font-size="14" lengthAdjust="spacing" textLength="220.1992" x="2277.98" y="249.4851">detect_language(file_path) : str</text></g><!--class AIService--><g class="entity" data-qualified-name="AI Service.AIService" data-source-line="113" id="ent0016"><rect fill="#FFFFFF" height="88.8594" rx="2.5" ry="2.5" style="stroke:#444444;stroke-width:0.5;" width="392.4951" x="1373.75" y="458.7338"/><ellipse cx="1533.0239" cy="478.8666" fill="#2E5233" rx="11" ry="11" style="stroke:#E7E7E7;stroke-width:1;"/><path d="M1535.9927,484.5072 Q1535.4146,484.8041 1534.7739,484.9447 Q1534.1333,485.1009 1533.4302,485.1009 Q1530.9302,485.1009 1529.6021,483.4603 Q1528.2896,481.8041 1528.2896,478.6791 Q1528.2896,475.5541 1529.6021,473.8978 Q1530.9302,472.2416 1533.4302,472.2416 Q1534.1333,472.2416 1534.7739,472.3978 Q1535.4302,472.5541 1535.9927,472.8509 L1535.9927,475.5697 Q1535.3677,474.9916 1534.7739,474.7259 Q1534.1802,474.4447 1533.5552,474.4447 Q1532.2114,474.4447 1531.5239,475.5228 Q1530.8364,476.5853 1530.8364,478.6791 Q1530.8364,480.7728 1531.5239,481.8509 Q1532.2114,482.9134 1533.5552,482.9134 Q1534.1802,482.9134 1534.7739,482.6478 Q1535.3677,482.3666 1535.9927,481.7884 L1535.9927,484.5072 Z " fill="#000000"/><text fill="#000000" font-family="sans-serif" font-size="12" font-style="italic" lengthAdjust="spacing" textLength="59.6543" x="1556.4204" y="474.8724">&#171;module&#187;</text><text fill="#000000" font-family="sans-serif" font-size="14" lengthAdjust="spacing" textLength="65.4473" x="1553.5239" y="490.6976">AIService</text><line style="stroke:#444444;stroke-width:0.5;" x1="1374.75" x2="1765.2451" y1="498.9994" y2="498.9994"/><line style="stroke:#444444;stroke-width:0.5;" x1="1374.75" x2="1765.2451" y1="506.9994" y2="506.9994"/><g data-visibility-modifier="PUBLIC_METHOD"><ellipse cx="1384.75" cy="520.6478" fill="#84BE84" rx="3" ry="3" style="stroke:#038048;stroke-width:1;"/></g><text fill="#000000" font-family="sans-serif" font-size="14" lengthAdjust="spacing" textLength="366.4951" x="1393.75" y="523.9945">structured_completion(system, prompt, temp) : Dict</text><g data-visibility-modifier="PUBLIC_METHOD"><ellipse cx="1384.75" cy="536.9447" fill="#84BE84" rx="3" ry="3" style="stroke:#038048;stroke-width:1;"/></g><text fill="#000000" font-family="sans-serif" font-size="14" lengthAdjust="spacing" textLength="325.8965" x="1393.75" y="540.2914">single_completion(system, prompt, temp) : str</text></g><g class="entity" data-qualified-name="GMN20" data-source-line="126" id="ent0021"><path d="M1089.2,475.4638 L1089.2,530.8622 A0,0 0 0 0 1089.2,530.8622 L1338.8045,530.8622 A0,0 0 0 0 1338.8045,530.8622 L1338.8045,485.4638 L1328.8045,475.4638 L1190.51,475.4638 L1007.03,297.8038 L1182.51,475.4638 L1089.2,475.4638 A0,0 0 0 0 1089.2,475.4638" fill="#FFFDE7" style="stroke:#CCCCCC;stroke-width:0.5;"/><path d="M1328.8045,475.4638 L1328.8045,485.4638 L1338.8045,485.4638 L1328.8045,475.4638" fill="#FFFDE7" style="stroke:#CCCCCC;stroke-width:0.5;"/><text fill="#000000" font-family="sans-serif" font-size="13" lengthAdjust="spacing" textLength="228.6045" x="1095.2" y="492.5306">confirm_manifest raises ValueError</text><text fill="#000000" font-family="sans-serif" font-size="13" lengthAdjust="spacing" textLength="192.353" x="1095.2" y="507.6635">if validation.is_valid == False</text><text fill="#000000" font-family="sans-serif" font-size="13" lengthAdjust="spacing" textLength="213.0591" x="1095.2" y="522.7963">Routes return HTTP 400 to caller</text></g><g class="entity" data-qualified-name="GMN23" data-source-line="132" id="ent0024"><path d="M2782.6,452.7638 L2782.6,553.5606 L3023.4003,553.5606 L3023.4003,462.7638 L3013.4003,452.7638 L2782.6,452.7638" fill="#FFFDE7" style="stroke:#CCCCCC;stroke-width:0.5;"/><path d="M3013.4003,452.7638 L3013.4003,462.7638 L3023.4003,462.7638 L3013.4003,452.7638" fill="#FFFDE7" style="stroke:#CCCCCC;stroke-width:1;"/><text fill="#000000" font-family="sans-serif" font-size="13" lengthAdjust="spacing" textLength="200.8081" x="2788.6" y="469.8306">detect_language by extension:</text><text fill="#000000" font-family="sans-serif" font-size="13" lengthAdjust="spacing" textLength="133.1929" x="2788.6" y="484.9635">.ts/.tsx -&gt; typescript</text><text fill="#000000" font-family="sans-serif" font-size="13" lengthAdjust="spacing" textLength="178.8008" x="2788.6" y="500.0963">.py -&gt; python  .json -&gt; json</text><text fill="#000000" font-family="sans-serif" font-size="13" lengthAdjust="spacing" textLength="219.8003" x="2788.6" y="515.2291">.yaml/.yml -&gt; yaml  .html -&gt; html</text><text fill="#000000" font-family="sans-serif" font-size="13" lengthAdjust="spacing" textLength="151.855" x="2788.6" y="530.3619">.css -&gt; css  .sh -&gt; bash</text><text fill="#000000" font-family="sans-serif" font-size="13" lengthAdjust="spacing" textLength="201.5825" x="2788.6" y="545.4947">.md -&gt; markdown  .env -&gt; env</text></g><g class="entity" data-qualified-name="GMN26" data-source-line="141" id="ent0027"><path d="M3057.95,475.4638 L3057.95,530.8622 L3294.0403,530.8622 L3294.0403,485.4638 L3284.0403,475.4638 L3057.95,475.4638" fill="#FFFDE7" style="stroke:#CCCCCC;stroke-width:0.5;"/><path d="M3284.0403,475.4638 L3284.0403,485.4638 L3294.0403,485.4638 L3284.0403,475.4638" fill="#FFFDE7" style="stroke:#CCCCCC;stroke-width:1;"/><text fill="#000000" font-family="sans-serif" font-size="13" lengthAdjust="spacing" textLength="215.0903" x="3063.95" y="492.5306">Only generated for stories where</text><text fill="#000000" font-family="sans-serif" font-size="13" lengthAdjust="spacing" textLength="180.502" x="3063.95" y="507.6635">status == "confirmed" AND</text><text fill="#000000" font-family="sans-serif" font-size="13" lengthAdjust="spacing" textLength="179.7466" x="3063.95" y="522.7963">failure_criteria is not empty</text></g><!--reverse link DirectoryNode to DirectoryNode--><g class="link" data-entity-1="ent0006" data-entity-2="ent0006" data-link-type="composition" data-source-line="120" id="lnk17"><path codeLine="120" d="M647.661,172.1404 C668.061,175.6004 670.43,182.2338 670.43,196.0638 C670.43,209.8838 656.23,218.5238 635.83,221.9838" fill="none" id="DirectoryNode-backto-DirectoryNode" style="stroke:#333333;stroke-width:1;"/><polygon fill="#333333" points="635.83,170.1338,641.0766,175.0807,647.661,172.1404,642.4144,167.1934,635.83,170.1338" style="stroke:#333333;stroke-width:1;"/><text fill="#000000" font-family="sans-serif" font-size="13" lengthAdjust="spacing" textLength="52.4443" x="676.43" y="200.6306">children</text><text fill="#000000" font-family="sans-serif" font-size="13" lengthAdjust="spacing" textLength="23.0356" x="643.25" y="220.1198">0..*</text></g><!--link Stage6Service to AIService--><g class="link" data-entity-1="ent0008" data-entity-2="ent0016" data-link-type="dependency" data-source-line="122" id="lnk18"><path codeLine="122" d="M1057.47,258.5138 C1145.51,294.8938 1257.88,342.8638 1356,389.5238 C1401.12,410.9838 1445.247,433.9894 1485.217,455.5094" fill="none" id="Stage6Service-to-AIService" style="stroke:#333333;stroke-width:1;stroke-dasharray:7,7;"/><polygon fill="#333333" points="1490.5,458.3538,1484.4718,450.5652,1486.0975,455.9834,1480.6793,457.6092,1490.5,458.3538" style="stroke:#333333;stroke-width:1;"/><text fill="#000000" font-family="sans-serif" font-size="13" lengthAdjust="spacing" textLength="177.5503" x="1285" y="348.0906">structured_completion x5+</text></g><!--link Stage7Service to AIService--><g class="link" data-entity-1="ent0014" data-entity-2="ent0016" data-link-type="dependency" data-source-line="123" id="lnk19"><path codeLine="123" d="M2313.27,257.2638 C2290.91,272.2738 2265.83,287.0538 2241,297.5238 C2058.93,374.3538 1993.15,326.0838 1806,389.5238 C1752.15,407.7838 1699.8299,432.3784 1654.9899,455.5584" fill="none" id="Stage7Service-to-AIService" style="stroke:#333333;stroke-width:1;stroke-dasharray:7,7;"/><polygon fill="#333333" points="1649.66,458.3138,1659.4918,457.7341,1654.1016,456.0177,1655.818,450.6275,1649.66,458.3138" style="stroke:#333333;stroke-width:1;"/><text fill="#000000" font-family="sans-serif" font-size="13" lengthAdjust="spacing" textLength="167.1719" x="2170.1069" y="340.5906">single_completion per file</text><text fill="#000000" font-family="sans-serif" font-size="13" lengthAdjust="spacing" textLength="201.3857" x="2153" y="355.7235">structured_completion per test</text></g><!--link Stage7Service to GMN23--><g class="link" data-entity-1="ent0014" data-entity-2="ent0024" data-link-type="association" data-source-line="132" id="lnk25"><path d="M2475.02,257.2238 C2496.37,271.3138 2519.61,285.6538 2542,297.5238 C2637.44,348.1438 2674.33,333.9938 2767,389.5238 C2796.58,407.2538 2826.43,431.1538 2850.6,452.3738" fill="none" id="Stage7Service-GMN23" style="stroke:#333333;stroke-width:1;stroke-dasharray:7,7;"/></g><!--link TestCase to GMN26--><g class="link" data-entity-1="ent0012" data-entity-2="ent0027" data-link-type="association" data-source-line="141" id="lnk28"><path d="M2751.18,237.4738 C2831.39,272.9238 2947.29,328.2738 3041,389.5238 C3080.35,415.2438 3121.21,450.7838 3147.52,475.0138" fill="none" id="TestCase-GMN26" style="stroke:#333333;stroke-width:1;stroke-dasharray:7,7;"/></g><?plantuml-src ZLRhRjis5FwlfpZm_gIDumPOKWD66y2ndILOaXQ9Ds1R0u6HQ9iDHN8avKGR2kmXzeHxafqZouvkjal3a7HkFDUFT4z26MPP0eyiUffRdQfufAMsyCD5lWAtaOZvZANINsZb2v7ZV9L48icSsojmoLdCxNbzmyan_Uh2vzgYS25oag-6o5xNcRNwkM3-cAyIqw0wc_EcbLFwjGYMFHhcgocqAmbA-xtyjfZ6atvTgkpAA5z1u8MN7EwD5Sh32VptpxymeZJ1MB0vQdvHznuzXFS3k67ESmldgP0nV9PCmI6icFq1Z7JCuKBREG-28Yhe5AeT-3i805TUW9NE-qai_9Iv9_ZmuPmvVeFwykmC9Q5OXnwveOXX0CxRLt9gOkQvG_9OH3wdVsitVyEKc77djs-nprOUQ-vbIQdfalFQPYskhf9R8yRSHLOOBxIgisP2yj0mlwWp8fqOhRZoeSzCmo8p8aoOCKBDaNKjdFy3-G-bBH_tyBdXAkOg4dakMYImFxGLFgjlZTaL2QOm3XSwjQICVTJCurXO7b6IRgbDoZLk2KUnf44pgJNQDSZH0kjZkLexNTddeUd7hqmAh3Yc_euxXATAMLsu93RQUjHQbc94FB1RylBChCAqDhajBNdFxL947BinqN4gURKLxuRJINXzTNCr3SUJw-5lgrJ2HpXzbHbT_dBxStX_zVkaZJldYbki1TQQ1ZKqEA87nkglc98tvHRFfPUhL93qQaeE77dP5EGuII7DuagW2yLSTg6OdYqgLRixf2EjPi8cUnrHsYRez5yyB3nm1_IIMoog7_c7SdEawYcKo3d0dLaN7EgIy4-hH6cxhjIt1cRrsp2hNoZoE_vdkXDNYf2ALi8oNJ3fUBCnrWRZ2vpyie5s450U8Q1EnYhFK_Av3Zxjy9btCn8_vGZ4v9QMdM9y8mnkD_2rZUesC9mn8LFBGmG_xCuMzCFcQCUtd14HSdndwFp5OCyZAEdK8tIskCXywahKHkXtt6XRWGUlFPCbV2lAv1oFwrIAj4cDz19hNN6s2HBztI1XKnKMOuu9t3xS6oYW4oMVaYxaxVEoIvZoxDP6kq2wc-4g7nOUsU4wzmURG-jDDRBoK0sle0YiDbV3gzq1exqqyjWsSKXdeEHvt2v3W4kwWAuc1Zt53zECoo4meslVeLVrkdfOlJqwWivnh_UsKpl51h0-VOAW2l2ztbafiDnyCmXuEJqCgZLlwDK308FtByht5zLka_XKnI2W2n-2Z_Sw0Jshda0OQnrpmJBXU7v0fdn24852OWRBpO7PsvoF7r_Xx0u73BKiHqyKN4wdd-7a-1YyXeX9oMs0ruhyxjdkKF_LeLfNmMC6sAnSETnwWFoUT-_m_m97Pq0OiRf34SDaH3EPNs02eFVLuGC9z2HsnXBvhfSbaeZqWRI5NttIasGYx4Jyf0Vqt8BU7vbR42k9wIjXzYdMpsIVgoLHyB4zk3Luee5FIcQmdh0OPeYz191qqNfUS4iY1HfXMZj5MNZSWU7j67arq6GW76q9sBW-spZmFm00?></g></svg>