<svg xmlns="http://www.w3.org/2000/svg" xmlns:xlink="http://www.w3.org/1999/xlink" contentStyleType="text/css" data-diagram-type="DESCRIPTION" height="3166px" preserveAspectRatio="none" style="width:441px;height:3166px;background:#FAFAFA;" version="1.1" viewBox="0 0 441 3166" width="441px" zoomAndPan="magnify"><?plantuml 1.2026.3beta6?><defs/><g><rect fill="#FAFAFA" height="3166" style="stroke:none;stroke-width:1;" width="441" x="0" y="0"/><!--cluster MVPForge System--><g class="cluster" data-qualified-name="MVPForge System" data-source-line="21" id="ent0004"><rect fill="#F5F5F5" height="3145" rx="2.5" ry="2.5" style="stroke:#888888;stroke-width:1;" width="306.61" x="121.27" y="7"/><text fill="#000000" font-family="sans-serif" font-size="14" font-weight="700" lengthAdjust="spacing" textLength="143.8213" x="202.6644" y="21.9951">MVPForge System</text></g><!--cluster Authentication--><g class="cluster" data-qualified-name="MVPForge System.Authentication" data-source-line="23" id="ent0005"><rect fill="#F5F5F5" height="280" rx="2.5" ry="2.5" style="stroke:#888888;stroke-width:1;" width="182.63" x="183.26" y="50"/><text fill="#000000" font-family="sans-serif" font-size="14" font-weight="700" lengthAdjust="spacing" textLength="117.2363" x="215.9568" y="64.9951">Authentication</text></g><!--cluster Project Management--><g class="cluster" data-qualified-name="MVPForge System.Project Management" data-source-line="30" id="ent0010"><rect fill="#F5F5F5" height="284" rx="2.5" ry="2.5" style="stroke:#888888;stroke-width:1;" width="179.38" x="184.88" y="354"/><text fill="#000000" font-family="sans-serif" font-size="14" font-weight="700" lengthAdjust="spacing" textLength="163.9941" x="192.5729" y="368.9951">Project Management</text></g><!--cluster Stage 1 : Discovery--><g class="cluster" data-qualified-name="MVPForge System.Stage 1 . Discovery" data-source-line="37" id="ent0015"><rect fill="#F5F5F5" height="349" rx="2.5" ry="2.5" style="stroke:#888888;stroke-width:1;" width="232.54" x="158.3" y="2431"/><text fill="#000000" font-family="sans-serif" font-size="14" font-weight="700" lengthAdjust="spacing" textLength="153.0225" x="198.0588" y="2445.9951">Stage 1 : Discovery</text></g><!--cluster Stage 2 : Feature Definition--><g class="cluster" data-qualified-name="MVPForge System.Stage 2 . Feature Definition" data-source-line="44" id="ent0020"><rect fill="#F5F5F5" height="272" rx="2.5" ry="2.5" style="stroke:#888888;stroke-width:1;" width="234.52" x="157.81" y="1003"/><text fill="#000000" font-family="sans-serif" font-size="14" font-weight="700" lengthAdjust="spacing" textLength="219.9873" x="165.0763" y="1017.9951">Stage 2 : Feature Definition</text></g><!--cluster Stage 3 : Backlog--><g class="cluster" data-qualified-name="MVPForge System.Stage 3 . Backlog" data-source-line="50" id="ent0024"><rect fill="#F5F5F5" height="397" rx="2.5" ry="2.5" style="stroke:#888888;stroke-width:1;" width="212.84" x="168.15" y="1299"/><text fill="#000000" font-family="sans-serif" font-size="14" font-weight="700" lengthAdjust="spacing" textLength="137.8672" x="205.6364" y="1313.9951">Stage 3 : Backlog</text></g><!--cluster Stage 4 : Architecture--><g class="cluster" data-qualified-name="MVPForge System.Stage 4 . Architecture" data-source-line="58" id="ent0030"><rect fill="#F5F5F5" height="346" rx="2.5" ry="2.5" style="stroke:#888888;stroke-width:1;" width="258.61" x="145.27" y="2061"/><text fill="#000000" font-family="sans-serif" font-size="14" font-weight="700" lengthAdjust="spacing" textLength="174.0498" x="187.5501" y="2075.9951">Stage 4 : Architecture</text></g><!--cluster Stage 5 : UI Prototyping--><g class="cluster" data-qualified-name="MVPForge System.Stage 5 . UI Prototyping" data-source-line="65" id="ent0035"><rect fill="#F5F5F5" height="317" rx="2.5" ry="2.5" style="stroke:#888888;stroke-width:1;" width="205.8" x="171.67" y="1720"/><text fill="#000000" font-family="sans-serif" font-size="14" font-weight="700" lengthAdjust="spacing" textLength="190.873" x="179.1335" y="1734.9951">Stage 5 : UI Prototyping</text></g><!--cluster Stage 6 : Master Plan--><g class="cluster" data-qualified-name="MVPForge System.Stage 6 . Master Plan" data-source-line="72" id="ent0040"><rect fill="#F5F5F5" height="317" rx="2.5" ry="2.5" style="stroke:#888888;stroke-width:1;" width="230.86" x="159.14" y="662"/><text fill="#000000" font-family="sans-serif" font-size="14" font-weight="700" lengthAdjust="spacing" textLength="169.8525" x="189.6437" y="676.9951">Stage 6 : Master Plan</text></g><!--cluster Stage 7 : Code Forge--><g class="cluster" data-qualified-name="MVPForge System.Stage 7 . Code Forge" data-source-line="79" id="ent0045"><rect fill="#F5F5F5" height="324" rx="2.5" ry="2.5" style="stroke:#888888;stroke-width:1;" width="237.1" x="156.02" y="2804"/><text fill="#000000" font-family="sans-serif" font-size="14" font-weight="700" lengthAdjust="spacing" textLength="165.5869" x="191.7765" y="2818.9951">Stage 7 : Code Forge</text></g><!--entity UC_REG--><g class="entity" data-qualified-name="MVPForge System.Authentication.UC_REG" data-source-line="24" id="ent0006"><ellipse cx="274.5654" cy="297.0031" fill="#FFFFFF" rx="75.3154" ry="17.4631" style="stroke:#444444;stroke-width:0.5;"/><text fill="#000000" font-family="sans-serif" font-size="14" lengthAdjust="spacing" textLength="119.4922" x="214.8193" y="301.6515">Register Account</text></g><!--entity UC_LOGIN--><g class="entity" data-qualified-name="MVPForge System.Authentication.UC_LOGIN" data-source-line="25" id="ent0007"><ellipse cx="274.5704" cy="230.0036" fill="#FFFFFF" rx="29.8804" ry="14.5236" style="stroke:#444444;stroke-width:0.5;"/><text fill="#000000" font-family="sans-serif" font-size="14" lengthAdjust="spacing" textLength="38.0146" x="255.5631" y="234.6521">Login</text></g><!--entity UC_PROFILE--><g class="entity" data-qualified-name="MVPForge System.Authentication.UC_PROFILE" data-source-line="26" id="ent0008"><ellipse cx="274.5723" cy="165.0005" fill="#FFFFFF" rx="67.2023" ry="15.8405" style="stroke:#444444;stroke-width:0.5;"/><text fill="#000000" font-family="sans-serif" font-size="14" lengthAdjust="spacing" textLength="99.2373" x="224.9537" y="169.6489">Update Profile</text></g><!--entity UC_VIEWPROFILE--><g class="entity" data-qualified-name="MVPForge System.Authentication.UC_VIEWPROFILE" data-source-line="27" id="ent0009"><ellipse cx="274.574" cy="100.0048" fill="#FFFFFF" rx="60.824" ry="14.5648" style="stroke:#444444;stroke-width:0.5;"/><text fill="#000000" font-family="sans-serif" font-size="14" lengthAdjust="spacing" textLength="82.0654" x="233.5412" y="104.6532">View Profile</text></g><!--entity UC_CREATEPROJ--><g class="entity" data-qualified-name="MVPForge System.Project Management.UC_CREATEPROJ" data-source-line="31" id="ent0011"><ellipse cx="274.5727" cy="605.9985" fill="#FFFFFF" rx="67.3927" ry="15.8785" style="stroke:#444444;stroke-width:0.5;"/><text fill="#000000" font-family="sans-serif" font-size="14" lengthAdjust="spacing" textLength="99.7295" x="224.7079" y="610.647">Create Project</text></g><!--entity UC_LISTPROJ--><g class="entity" data-qualified-name="MVPForge System.Project Management.UC_LISTPROJ" data-source-line="32" id="ent0012"><ellipse cx="274.5692" cy="537.9978" fill="#FFFFFF" rx="73.6892" ry="17.1378" style="stroke:#444444;stroke-width:0.5;"/><text fill="#000000" font-family="sans-serif" font-size="14" lengthAdjust="spacing" textLength="115.5342" x="216.8021" y="542.6463">View All Projects</text></g><!--entity UC_OPENPROJ--><g class="entity" data-qualified-name="MVPForge System.Project Management.UC_OPENPROJ" data-source-line="33" id="ent0013"><ellipse cx="274.5733" cy="471.0027" fill="#FFFFFF" rx="63.8133" ry="15.1627" style="stroke:#444444;stroke-width:0.5;"/><text fill="#000000" font-family="sans-serif" font-size="14" lengthAdjust="spacing" textLength="90.2959" x="229.4254" y="475.6511">Open Project</text></g><!--entity UC_DELPROJ--><g class="entity" data-qualified-name="MVPForge System.Project Management.UC_DELPROJ" data-source-line="34" id="ent0014"><ellipse cx="274.573" cy="405.0046" fill="#FFFFFF" rx="67.073" ry="15.8146" style="stroke:#444444;stroke-width:0.5;"/><text fill="#000000" font-family="sans-serif" font-size="14" lengthAdjust="spacing" textLength="98.9023" x="225.1218" y="409.653">Delete Project</text></g><!--entity UC_S1CHAT--><g class="entity" data-qualified-name="MVPForge System.Stage 1 . Discovery.UC_S1CHAT" data-source-line="38" id="ent0016"><ellipse cx="274.5676" cy="2652.9965" fill="#FFFFFF" rx="100.2676" ry="24.1865" style="stroke:#444444;stroke-width:0.5;"/><text fill="#000000" font-family="sans-serif" font-size="14" lengthAdjust="spacing" textLength="85.0254" x="232.0549" y="2646.7376">Chat with AI</text><text fill="#000000" font-family="sans-serif" font-size="14" lengthAdjust="spacing" textLength="149.6387" x="199.7483" y="2663.0345">(Discovery Interview)</text></g><!--entity UC_S1SCORE--><g class="entity" data-qualified-name="MVPForge System.Stage 1 . Discovery.UC_S1SCORE" data-source-line="39" id="ent0017"><ellipse cx="274.5706" cy="2572.9981" fill="#FFFFFF" rx="89.9906" ry="20.3981" style="stroke:#444444;stroke-width:0.5;"/><text fill="#000000" font-family="sans-serif" font-size="14" lengthAdjust="spacing" textLength="153.7197" x="197.7107" y="2577.6466">View Readiness Score</text></g><!--entity UC_S1PVD--><g class="entity" data-qualified-name="MVPForge System.Stage 1 . Discovery.UC_S1PVD" data-source-line="40" id="ent0018"><ellipse cx="274.5664" cy="2738.0031" fill="#FFFFFF" rx="89.5864" ry="25.8431" style="stroke:#444444;stroke-width:0.5;"/><text fill="#000000" font-family="sans-serif" font-size="14" lengthAdjust="spacing" textLength="123.5459" x="212.7935" y="2734.7931">Generate Product</text><text fill="#000000" font-family="sans-serif" font-size="14" lengthAdjust="spacing" textLength="119.0684" x="215.0323" y="2751.09">Vision Document</text></g><!--entity UC_S1PROCEED--><g class="entity" data-qualified-name="MVPForge System.Stage 1 . Discovery.UC_S1PROCEED" data-source-line="41" id="ent0019"><ellipse cx="274.5739" cy="2492.0025" fill="#FFFFFF" rx="57.5239" ry="25.8525" style="stroke:#444444;stroke-width:0.5;"/><text fill="#000000" font-family="sans-serif" font-size="14" lengthAdjust="spacing" textLength="75.0791" x="237.0343" y="2488.2259">Proceed to</text><text fill="#000000" font-family="sans-serif" font-size="14" lengthAdjust="spacing" textLength="77.7656" x="235.6911" y="2504.5227">Next Stage</text></g><!--entity UC_S2VIEW--><g class="entity" data-qualified-name="MVPForge System.Stage 2 . Feature Definition.UC_S2VIEW" data-source-line="45" id="ent0021"><ellipse cx="274.5725" cy="1232.9967" fill="#FFFFFF" rx="96.7625" ry="25.9567" style="stroke:#444444;stroke-width:0.5;"/><text fill="#000000" font-family="sans-serif" font-size="14" lengthAdjust="spacing" textLength="131.0107" x="209.0671" y="1229.3685">View AI-Generated</text><text fill="#000000" font-family="sans-serif" font-size="14" lengthAdjust="spacing" textLength="133.123" x="208.011" y="1245.6653">Epics and Features</text></g><!--entity UC_S2TOGGLE--><g class="entity" data-qualified-name="MVPForge System.Stage 2 . Feature Definition.UC_S2TOGGLE" data-source-line="46" id="ent0022"><ellipse cx="274.5706" cy="1147.0014" fill="#FFFFFF" rx="86.7006" ry="25.3414" style="stroke:#444444;stroke-width:0.5;"/><text fill="#000000" font-family="sans-serif" font-size="14" lengthAdjust="spacing" textLength="105.8203" x="221.6604" y="1142.4869">Toggle Feature</text><text fill="#000000" font-family="sans-serif" font-size="14" lengthAdjust="spacing" textLength="122.1104" x="213.5154" y="1158.7837">Enabled/Disabled</text></g><!--entity UC_S2CONFIRM--><g class="entity" data-qualified-name="MVPForge System.Stage 2 . Feature Definition.UC_S2CONFIRM" data-source-line="47" id="ent0023"><ellipse cx="274.5703" cy="1062.002" fill="#FFFFFF" rx="76.9903" ry="24.182" style="stroke:#444444;stroke-width:0.5;"/><text fill="#000000" font-family="sans-serif" font-size="14" lengthAdjust="spacing" textLength="113.8525" x="217.644" y="1061.2679">Confirm Feature</text><text fill="#000000" font-family="sans-serif" font-size="14" lengthAdjust="spacing" textLength="64.5176" x="242.3115" y="1077.5647">Selection</text></g><!--entity UC_S3GEN--><g class="entity" data-qualified-name="MVPForge System.Stage 3 . Backlog.UC_S3GEN" data-source-line="51" id="ent0025"><ellipse cx="274.5697" cy="1575.0039" fill="#FFFFFF" rx="90.4197" ry="20.4839" style="stroke:#444444;stroke-width:0.5;"/><text fill="#000000" font-family="sans-serif" font-size="14" lengthAdjust="spacing" textLength="154.6904" x="197.2245" y="1579.6524">Generate User Stories</text></g><!--entity UC_S3EDIT--><g class="entity" data-qualified-name="MVPForge System.Stage 3 . Backlog.UC_S3EDIT" data-source-line="52" id="ent0026"><ellipse cx="274.5693" cy="1503.0019" fill="#FFFFFF" rx="72.9093" ry="16.9819" style="stroke:#444444;stroke-width:0.5;"/><text fill="#000000" font-family="sans-serif" font-size="14" lengthAdjust="spacing" textLength="113.6201" x="217.7592" y="1507.6503">Edit Story Fields</text></g><!--entity UC_S3MOVE--><g class="entity" data-qualified-name="MVPForge System.Stage 3 . Backlog.UC_S3MOVE" data-source-line="53" id="ent0027"><ellipse cx="274.569" cy="1427.0041" fill="#FFFFFF" rx="89.769" ry="24.2641" style="stroke:#444444;stroke-width:0.5;"/><text fill="#000000" font-family="sans-serif" font-size="14" lengthAdjust="spacing" textLength="78.9756" x="235.0812" y="1420.8665">Move Story</text><text fill="#000000" font-family="sans-serif" font-size="14" lengthAdjust="spacing" textLength="133" x="208.069" y="1437.1633">(Draft / Confirmed)</text></g><!--entity UC_S3REGEN--><g class="entity" data-qualified-name="MVPForge System.Stage 3 . Backlog.UC_S3REGEN" data-source-line="54" id="ent0028"><ellipse cx="274.5698" cy="1654.9985" fill="#FFFFFF" rx="84.5998" ry="24.5885" style="stroke:#444444;stroke-width:0.5;"/><text fill="#000000" font-family="sans-serif" font-size="14" lengthAdjust="spacing" textLength="123.1973" x="212.9711" y="1653.6365">Regenerate Story</text><text fill="#000000" font-family="sans-serif" font-size="14" lengthAdjust="spacing" textLength="84.9297" x="232.1049" y="1669.9333">with Prompt</text></g><!--entity UC_S3CONFIRM--><g class="entity" data-qualified-name="MVPForge System.Stage 3 . Backlog.UC_S3CONFIRM" data-source-line="55" id="ent0029"><ellipse cx="274.5652" cy="1351.001" fill="#FFFFFF" rx="73.5552" ry="17.111" style="stroke:#444444;stroke-width:0.5;"/><text fill="#000000" font-family="sans-serif" font-size="14" lengthAdjust="spacing" textLength="115.2061" x="216.9622" y="1355.6495">Confirm Backlog</text></g><!--entity UC_S4GEN--><g class="entity" data-qualified-name="MVPForge System.Stage 4 . Architecture.UC_S4GEN" data-source-line="59" id="ent0031"><ellipse cx="274.575" cy="2365.0029" fill="#FFFFFF" rx="113.305" ry="26.0229" style="stroke:#444444;stroke-width:0.5;"/><text fill="#000000" font-family="sans-serif" font-size="14" lengthAdjust="spacing" textLength="156.1602" x="196.4949" y="2361.5374">Generate Architecture</text><text fill="#000000" font-family="sans-serif" font-size="14" lengthAdjust="spacing" textLength="155.4971" x="196.8265" y="2377.8343">(Tech Stack, APIs, DB)</text></g><!--entity UC_S4MODIFY--><g class="entity" data-qualified-name="MVPForge System.Stage 4 . Architecture.UC_S4MODIFY" data-source-line="60" id="ent0032"><ellipse cx="274.571" cy="2280.0013" fill="#FFFFFF" rx="92.971" ry="24.3413" style="stroke:#444444;stroke-width:0.5;"/><text fill="#000000" font-family="sans-serif" font-size="14" lengthAdjust="spacing" textLength="137.4092" x="205.8664" y="2279.0191">Modify Architecture</text><text fill="#000000" font-family="sans-serif" font-size="14" lengthAdjust="spacing" textLength="84.9297" x="232.1062" y="2295.316">with Prompt</text></g><!--entity UC_S4DIAGRAM--><g class="entity" data-qualified-name="MVPForge System.Stage 4 . Architecture.UC_S4DIAGRAM" data-source-line="61" id="ent0033"><ellipse cx="274.5678" cy="2195.9951" fill="#FFFFFF" rx="86.7178" ry="24.9951" style="stroke:#444444;stroke-width:0.5;"/><text fill="#000000" font-family="sans-serif" font-size="14" lengthAdjust="spacing" textLength="98.123" x="225.5063" y="2190.9696">View ERD and</text><text fill="#000000" font-family="sans-serif" font-size="14" lengthAdjust="spacing" textLength="124.0586" x="212.5386" y="2207.2665">System Diagrams</text></g><!--entity UC_S4CONFIRM--><g class="entity" data-qualified-name="MVPForge System.Stage 4 . Architecture.UC_S4CONFIRM" data-source-line="62" id="ent0034"><ellipse cx="274.5672" cy="2115.9974" fill="#FFFFFF" rx="86.6872" ry="19.7374" style="stroke:#444444;stroke-width:0.5;"/><text fill="#000000" font-family="sans-serif" font-size="14" lengthAdjust="spacing" textLength="146.2002" x="201.4671" y="2120.6459">Confirm Architecture</text></g><!--entity UC_S5GEN--><g class="entity" data-qualified-name="MVPForge System.Stage 5 . UI Prototyping.UC_S5GEN" data-source-line="66" id="ent0036"><ellipse cx="274.5702" cy="2001" fill="#FFFFFF" rx="85.9002" ry="19.58" style="stroke:#444444;stroke-width:0.5;"/><text fill="#000000" font-family="sans-serif" font-size="14" lengthAdjust="spacing" textLength="144.3955" x="202.3724" y="2005.6485">Generate UI Screens</text></g><!--entity UC_S5EDIT--><g class="entity" data-qualified-name="MVPForge System.Stage 5 . UI Prototyping.UC_S5EDIT" data-source-line="67" id="ent0037"><ellipse cx="274.5744" cy="1921.0049" fill="#FFFFFF" rx="62.2144" ry="25.7249" style="stroke:#444444;stroke-width:0.5;"/><text fill="#000000" font-family="sans-serif" font-size="14" lengthAdjust="spacing" textLength="80.001" x="234.5739" y="1917.0458">Edit Screen</text><text fill="#000000" font-family="sans-serif" font-size="14" lengthAdjust="spacing" textLength="84.9297" x="232.1096" y="1933.3426">with Prompt</text></g><!--entity UC_S5APPROVE--><g class="entity" data-qualified-name="MVPForge System.Stage 5 . UI Prototyping.UC_S5APPROVE" data-source-line="68" id="ent0038"><ellipse cx="274.5745" cy="1842.9969" fill="#FFFFFF" rx="72.0345" ry="16.8069" style="stroke:#444444;stroke-width:0.5;"/><text fill="#000000" font-family="sans-serif" font-size="14" lengthAdjust="spacing" textLength="111.46" x="218.8445" y="1847.6453">Approve Screen</text></g><!--entity UC_S5CONFIRM--><g class="entity" data-qualified-name="MVPForge System.Stage 5 . UI Prototyping.UC_S5CONFIRM" data-source-line="69" id="ent0039"><ellipse cx="274.5729" cy="1773.0026" fill="#FFFFFF" rx="78.4629" ry="18.0926" style="stroke:#444444;stroke-width:0.5;"/><text fill="#000000" font-family="sans-serif" font-size="14" lengthAdjust="spacing" textLength="127.0391" x="211.0534" y="1777.651">Confirm UI Design</text></g><!--entity UC_S6GEN--><g class="entity" data-qualified-name="MVPForge System.Stage 6 . Master Plan.UC_S6GEN" data-source-line="73" id="ent0041"><ellipse cx="274.5721" cy="936.9974" fill="#FFFFFF" rx="99.4321" ry="25.5774" style="stroke:#444444;stroke-width:0.5;"/><text fill="#000000" font-family="sans-serif" font-size="14" lengthAdjust="spacing" textLength="139.2139" x="204.9652" y="934.169">Generate Build Plan</text><text fill="#000000" font-family="sans-serif" font-size="14" lengthAdjust="spacing" textLength="127.2236" x="210.9603" y="950.4658">(Tasks, File Paths)</text></g><!--entity UC_S6EDIT--><g class="entity" data-qualified-name="MVPForge System.Stage 6 . Master Plan.UC_S6EDIT" data-source-line="74" id="ent0042"><ellipse cx="274.5718" cy="785.0044" fill="#FFFFFF" rx="74.3218" ry="17.2644" style="stroke:#444444;stroke-width:0.5;"/><text fill="#000000" font-family="sans-serif" font-size="14" lengthAdjust="spacing" textLength="117.0791" x="216.0323" y="789.6528">Edit Task Details</text></g><!--entity UC_S6VALIDATE--><g class="entity" data-qualified-name="MVPForge System.Stage 6 . Master Plan.UC_S6VALIDATE" data-source-line="75" id="ent0043"><ellipse cx="274.5702" cy="714.996" fill="#FFFFFF" rx="76.2302" ry="17.646" style="stroke:#444444;stroke-width:0.5;"/><text fill="#000000" font-family="sans-serif" font-size="14" lengthAdjust="spacing" textLength="121.7002" x="213.7201" y="719.6445">Validate Manifest</text></g><!--entity UC_S6CONFIRM--><g class="entity" data-qualified-name="MVPForge System.Stage 6 . Master Plan.UC_S6CONFIRM" data-source-line="76" id="ent0044"><ellipse cx="274.5749" cy="857.005" fill="#FFFFFF" rx="84.8249" ry="19.365" style="stroke:#444444;stroke-width:0.5;"/><text fill="#000000" font-family="sans-serif" font-size="14" lengthAdjust="spacing" textLength="141.9209" x="203.6144" y="861.6534">Confirm Master Plan</text></g><!--entity UC_S7GEN--><g class="entity" data-qualified-name="MVPForge System.Stage 7 . Code Forge.UC_S7GEN" data-source-line="80" id="ent0046"><ellipse cx="274.5727" cy="3013.9995" fill="#FFFFFF" rx="102.5527" ry="23.4695" style="stroke:#444444;stroke-width:0.5;"/><text fill="#000000" font-family="sans-serif" font-size="14" lengthAdjust="spacing" textLength="158.5186" x="195.3135" y="3014.4104">Generate Source Code</text><text fill="#000000" font-family="sans-serif" font-size="14" lengthAdjust="spacing" textLength="31.7393" x="258.7031" y="3030.7073">Files</text></g><!--entity UC_S7TEST--><g class="entity" data-qualified-name="MVPForge System.Stage 7 . Code Forge.UC_S7TEST" data-source-line="81" id="ent0047"><ellipse cx="274.5681" cy="3092.0016" fill="#FFFFFF" rx="86.5081" ry="19.7016" style="stroke:#444444;stroke-width:0.5;"/><text fill="#000000" font-family="sans-serif" font-size="14" lengthAdjust="spacing" textLength="145.79" x="201.6731" y="3096.6501">Generate Test Cases</text></g><!--entity UC_S7REPORT--><g class="entity" data-qualified-name="MVPForge System.Stage 7 . Code Forge.UC_S7REPORT" data-source-line="82" id="ent0048"><ellipse cx="274.5744" cy="2937.9969" fill="#FFFFFF" rx="75.2844" ry="17.4569" style="stroke:#444444;stroke-width:0.5;"/><text fill="#000000" font-family="sans-serif" font-size="14" lengthAdjust="spacing" textLength="119.417" x="214.8659" y="2942.6453">View Test Report</text></g><!--entity UC_S7ZIP--><g class="entity" data-qualified-name="MVPForge System.Stage 7 . Code Forge.UC_S7ZIP" data-source-line="83" id="ent0049"><ellipse cx="274.5656" cy="2862.0029" fill="#FFFFFF" rx="79.8656" ry="23.4529" style="stroke:#444444;stroke-width:0.5;"/><text fill="#000000" font-family="sans-serif" font-size="14" lengthAdjust="spacing" textLength="122.4932" x="213.319" y="2862.4413">Download Project</text><text fill="#000000" font-family="sans-serif" font-size="14" lengthAdjust="spacing" textLength="22.3672" x="263.382" y="2878.7381">Zip</text></g><!--entity User--><g class="entity" data-qualified-name="User" data-source-line="18" id="ent0002"><ellipse cx="53.6351" cy="1473.35" fill="#F1F1F1" rx="8" ry="8" style="stroke:#333333;stroke-width:0.5;"/><path d="M53.6351,1481.35 L53.6351,1508.35 M40.6351,1489.35 L66.6351,1489.35 M53.6351,1508.35 L40.6351,1523.35 M53.6351,1508.35 L66.6351,1523.35" fill="none" style="stroke:#333333;stroke-width:0.5;"/><text fill="#000000" font-family="sans-serif" font-size="14" lengthAdjust="spacing" textLength="31.9102" x="37.68" y="1537.8451">User</text></g><!--entity AI--><g class="entity" data-qualified-name="AI" data-source-line="19" id="ent0003"><ellipse cx="53.6328" cy="2110.35" fill="#F1F1F1" rx="8" ry="8" style="stroke:#333333;stroke-width:0.5;"/><path d="M53.6328,2118.35 L53.6328,2145.35 M40.6328,2126.35 L66.6328,2126.35 M53.6328,2145.35 L40.6328,2160.35 M53.6328,2145.35 L66.6328,2160.35" fill="none" style="stroke:#333333;stroke-width:0.5;"/><text fill="#000000" font-family="sans-serif" font-size="14" lengthAdjust="spacing" textLength="95.2656" x="6" y="2174.8451">Groq AI (LLM)</text></g><!--link User to UC_REG--><g class="link" data-entity-1="ent0002" data-entity-2="ent0006" data-link-type="dependency" data-source-line="88" id="lnk50"><path d="M54.32,1464.51 C53.1,1277.08 51.45,465.33 113.27,373 C136.65,338.06 174.9157,320.4452 210.9157,310.0452" fill="none" id="User-to-UC_REG" style="stroke:#333333;stroke-width:1;"/><polygon fill="#333333" points="216.68,308.38,206.9234,307.035,211.8764,309.7677,209.1437,314.7207,216.68,308.38" style="stroke:#333333;stroke-width:1;"/></g><!--link User to UC_LOGIN--><g class="link" data-entity-1="ent0002" data-entity-2="ent0007" data-link-type="dependency" data-source-line="89" id="lnk51"><path d="M55.13,1464.4 C57.94,1259.69 73.11,308.68 113.27,262 C145.66,224.35 202.6908,222.7206 239.3308,225.7806" fill="none" id="User-to-UC_LOGIN" style="stroke:#333333;stroke-width:1;"/><polygon fill="#333333" points="245.31,226.28,236.6741,221.5448,240.3273,225.8639,236.0083,229.5171,245.31,226.28" style="stroke:#333333;stroke-width:1;"/></g><!--link User to UC_PROFILE--><g class="link" data-entity-1="ent0002" data-entity-2="ent0008" data-link-type="dependency" data-source-line="90" id="lnk52"><path d="M55.04,1464.51 C57.45,1253.76 71.11,247.41 113.27,198 C136.41,170.87 169.3966,162.6908 203.1166,161.1108" fill="none" id="User-to-UC_PROFILE" style="stroke:#333333;stroke-width:1;"/><polygon fill="#333333" points="209.11,160.83,199.9326,157.2556,204.1155,161.064,200.3071,165.2469,209.11,160.83" style="stroke:#333333;stroke-width:1;"/></g><!--link User to UC_VIEWPROFILE--><g class="link" data-entity-1="ent0002" data-entity-2="ent0009" data-link-type="dependency" data-source-line="91" id="lnk53"><path d="M54.95,1464.7 C56.9,1248.07 68.73,183.99 113.27,132 C138.19,102.9 175.4004,95.658 210.6904,95.258" fill="none" id="User-to-UC_VIEWPROFILE" style="stroke:#333333;stroke-width:1;"/><polygon fill="#333333" points="216.69,95.19,207.6452,91.2923,211.6903,95.2467,207.7359,99.2917,216.69,95.19" style="stroke:#333333;stroke-width:1;"/></g><!--link User to UC_CREATEPROJ--><g class="link" data-entity-1="ent0002" data-entity-2="ent0011" data-link-type="dependency" data-source-line="94" id="lnk54"><path d="M55.11,1464.5 C57.34,1310.77 68.51,746.1 113.27,681 C137.98,645.04 178.8087,627.4688 215.4287,617.5488" fill="none" id="User-to-UC_CREATEPROJ" style="stroke:#333333;stroke-width:1;"/><polygon fill="#333333" points="221.22,615.98,211.4872,614.4723,216.3939,617.2873,213.579,622.194,221.22,615.98" style="stroke:#333333;stroke-width:1;"/></g><!--link User to UC_LISTPROJ--><g class="link" data-entity-1="ent0002" data-entity-2="ent0012" data-link-type="dependency" data-source-line="95" id="lnk55"><path d="M54.38,1464.6 C53.63,1297.8 54.45,641.51 113.27,573 C134.79,547.93 163.7454,538.941 195.5154,536.011" fill="none" id="User-to-UC_LISTPROJ" style="stroke:#333333;stroke-width:1;"/><polygon fill="#333333" points="201.49,535.46,192.1607,532.3034,196.5111,535.9192,192.8954,540.2696,201.49,535.46" style="stroke:#333333;stroke-width:1;"/></g><!--link User to UC_OPENPROJ--><g class="link" data-entity-1="ent0002" data-entity-2="ent0013" data-link-type="dependency" data-source-line="96" id="lnk56"><path d="M55.58,1464.48 C60.17,1285.24 81.14,539.92 113.27,503 C137.58,475.06 172.762,467.4463 207.302,466.5463" fill="none" id="User-to-UC_OPENPROJ" style="stroke:#333333;stroke-width:1;"/><polygon fill="#333333" points="213.3,466.39,204.1989,462.6258,208.3017,466.5202,204.4072,470.6231,213.3,466.39" style="stroke:#333333;stroke-width:1;"/></g><!--link User to UC_DELPROJ--><g class="link" data-entity-1="ent0002" data-entity-2="ent0014" data-link-type="dependency" data-source-line="97" id="lnk57"><path d="M55.45,1464.49 C59.54,1278.19 79.09,477.65 113.27,438 C136.55,410.99 169.5368,402.8146 203.2268,401.2146" fill="none" id="User-to-UC_DELPROJ" style="stroke:#333333;stroke-width:1;"/><polygon fill="#333333" points="209.22,400.93,200.0404,397.3614,204.2256,401.1672,200.4199,405.3524,209.22,400.93" style="stroke:#333333;stroke-width:1;"/></g><!--link User to UC_S1CHAT--><g class="link" data-entity-1="ent0002" data-entity-2="ent0016" data-link-type="dependency" data-source-line="100" id="lnk58"><path d="M58.48,1541.36 C67.63,1634.33 90.72,1879.1 101.27,2084 C102.02,2098.62 104.19,2599.51 113.27,2611 C128.69,2630.53 146.1882,2640.1591 170.2782,2646.3391" fill="none" id="User-to-UC_S1CHAT" style="stroke:#333333;stroke-width:1;"/><polygon fill="#333333" points="176.09,2647.83,168.3663,2641.719,171.2468,2646.5875,166.3783,2649.4681,176.09,2647.83" style="stroke:#333333;stroke-width:1;"/></g><!--link User to UC_S1SCORE--><g class="link" data-entity-1="ent0002" data-entity-2="ent0017" data-link-type="dependency" data-source-line="101" id="lnk59"><path d="M58.43,1541.36 C67.46,1634.34 90.33,1879.12 101.27,2084 C102.6,2109.03 97.46,2515.55 113.27,2535 C130.58,2556.31 151.5523,2565.8765 178.3823,2570.8965" fill="none" id="User-to-UC_S1SCORE" style="stroke:#333333;stroke-width:1;"/><polygon fill="#333333" points="184.28,2572,176.1692,2566.413,179.3653,2571.0804,174.6979,2574.2766,184.28,2572" style="stroke:#333333;stroke-width:1;"/></g><!--link User to UC_S1PVD--><g class="link" data-entity-1="ent0002" data-entity-2="ent0018" data-link-type="dependency" data-source-line="102" id="lnk60"><path d="M58.52,1541.36 C67.76,1634.32 91.04,1879.09 101.27,2084 C102.11,2100.95 102.8,2681.63 113.27,2695 C130.67,2717.24 152.3674,2727.5202 179.7774,2733.2602" fill="none" id="User-to-UC_S1PVD" style="stroke:#333333;stroke-width:1;"/><polygon fill="#333333" points="185.65,2734.49,177.6609,2728.7302,180.7562,2733.4652,176.0212,2736.5604,185.65,2734.49" style="stroke:#333333;stroke-width:1;"/></g><!--link User to UC_S1PROCEED--><g class="link" data-entity-1="ent0002" data-entity-2="ent0019" data-link-type="dependency" data-source-line="103" id="lnk61"><path d="M58.29,1541.37 C67.02,1634.36 89.25,1879.18 101.27,2084 C102.32,2101.93 103.72,2391.79 113.27,2407 C137.62,2445.83 180.353,2466.1591 217.653,2478.0391" fill="none" id="User-to-UC_S1PROCEED" style="stroke:#333333;stroke-width:1;"/><polygon fill="#333333" points="223.37,2479.86,216.0084,2473.3173,218.6058,2478.3426,213.5805,2480.9401,223.37,2479.86" style="stroke:#333333;stroke-width:1;"/></g><!--link User to UC_S2VIEW--><g class="link" data-entity-1="ent0002" data-entity-2="ent0021" data-link-type="dependency" data-source-line="106" id="lnk62"><path d="M58.25,1464.57 C63.85,1424.04 77.98,1360.31 113.27,1318 C138.69,1287.52 172.3621,1268.7105 205.6521,1255.1705" fill="none" id="User-to-UC_S2VIEW" style="stroke:#333333;stroke-width:1;"/><polygon fill="#333333" points="211.21,1252.91,201.3662,1252.5956,206.5784,1254.7938,204.3802,1260.0061,211.21,1252.91" style="stroke:#333333;stroke-width:1;"/></g><!--link User to UC_S2TOGGLE--><g class="link" data-entity-1="ent0002" data-entity-2="ent0022" data-link-type="dependency" data-source-line="107" id="lnk63"><path d="M56.81,1464.61 C61.83,1390.04 76.69,1229.5 113.27,1190 C132.84,1168.86 155.716,1158.893 183.476,1153.113" fill="none" id="User-to-UC_S2TOGGLE" style="stroke:#333333;stroke-width:1;"/><polygon fill="#333333" points="189.35,1151.89,179.7236,1149.8086,184.455,1152.9092,181.3543,1157.6406,189.35,1151.89" style="stroke:#333333;stroke-width:1;"/></g><!--link User to UC_S2CONFIRM--><g class="link" data-entity-1="ent0002" data-entity-2="ent0023" data-link-type="dependency" data-source-line="108" id="lnk64"><path d="M55.06,1464.59 C56.84,1375.19 66.04,1156.75 113.27,1104 C134.47,1080.32 161.3171,1070.2089 191.7071,1065.2889" fill="none" id="User-to-UC_S2CONFIRM" style="stroke:#333333;stroke-width:1;"/><polygon fill="#333333" points="197.63,1064.33,188.1064,1061.8197,192.6943,1065.1291,189.3849,1069.7169,197.63,1064.33" style="stroke:#333333;stroke-width:1;"/></g><!--link User to UC_S3GEN--><g class="link" data-entity-1="ent0002" data-entity-2="ent0025" data-link-type="dependency" data-source-line="111" id="lnk65"><path d="M69.92,1513.54 C81.4,1521.03 97.74,1530.82 113.27,1537 C141.3,1548.17 167.5838,1555.32 195.7038,1561.36" fill="none" id="User-to-UC_S3GEN" style="stroke:#333333;stroke-width:1;"/><polygon fill="#333333" points="201.57,1562.62,193.6107,1556.8192,196.6815,1561.57,191.9307,1564.6408,201.57,1562.62" style="stroke:#333333;stroke-width:1;"/></g><!--link User to UC_S3EDIT--><g class="link" data-entity-1="ent0002" data-entity-2="ent0026" data-link-type="dependency" data-source-line="112" id="lnk66"><path d="M70.03,1503 C96.99,1503 148.35,1503 195.33,1503" fill="none" id="User-to-UC_S3EDIT" style="stroke:#333333;stroke-width:1;"/><polygon fill="#333333" points="201.33,1503,192.33,1499,196.33,1503,192.33,1507,201.33,1503" style="stroke:#333333;stroke-width:1;"/></g><!--link User to UC_S3MOVE--><g class="link" data-entity-1="ent0002" data-entity-2="ent0027" data-link-type="dependency" data-source-line="113" id="lnk67"><path d="M69.97,1492.57 C81.47,1485.13 97.82,1475.37 113.27,1469 C141.33,1457.44 167.6573,1449.6768 195.7673,1442.8968" fill="none" id="User-to-UC_S3MOVE" style="stroke:#333333;stroke-width:1;"/><polygon fill="#333333" points="201.6,1441.49,191.913,1439.7118,196.7394,1442.6624,193.7888,1447.4887,201.6,1441.49" style="stroke:#333333;stroke-width:1;"/></g><!--link User to UC_S3REGEN--><g class="link" data-entity-1="ent0002" data-entity-2="ent0028" data-link-type="dependency" data-source-line="114" id="lnk68"><path d="M66.28,1541.62 C75.4,1565.51 90.43,1594.96 113.27,1613 C136.18,1631.1 160.2507,1640.2044 188.0507,1646.1044" fill="none" id="User-to-UC_S3REGEN" style="stroke:#333333;stroke-width:1;"/><polygon fill="#333333" points="193.92,1647.35,185.9465,1641.5687,189.0289,1646.312,184.2857,1649.3944,193.92,1647.35" style="stroke:#333333;stroke-width:1;"/></g><!--link User to UC_S3CONFIRM--><g class="link" data-entity-1="ent0002" data-entity-2="ent0029" data-link-type="dependency" data-source-line="115" id="lnk69"><path d="M64.25,1464.36 C72.79,1438.07 87.95,1404.62 113.27,1385 C138.11,1365.74 165.4326,1357.5629 195.2126,1353.5929" fill="none" id="User-to-UC_S3CONFIRM" style="stroke:#333333;stroke-width:1;"/><polygon fill="#333333" points="201.16,1352.8,191.7104,1350.0244,196.2038,1353.4607,192.7675,1357.9542,201.16,1352.8" style="stroke:#333333;stroke-width:1;"/></g><!--link User to UC_S4GEN--><g class="link" data-entity-1="ent0002" data-entity-2="ent0031" data-link-type="dependency" data-source-line="118" id="lnk70"><path d="M58.11,1541.38 C66.45,1634.4 87.89,1879.27 101.27,2084 C102.99,2110.42 96.63,2301.4 113.27,2322 C126.94,2338.92 140.7757,2347.7704 161.5457,2354.4204" fill="none" id="User-to-UC_S4GEN" style="stroke:#333333;stroke-width:1;"/><polygon fill="#333333" points="167.26,2356.25,159.9083,2349.6962,162.4981,2354.7254,157.4689,2357.3152,167.26,2356.25" style="stroke:#333333;stroke-width:1;"/></g><!--link User to UC_S4MODIFY--><g class="link" data-entity-1="ent0002" data-entity-2="ent0032" data-link-type="dependency" data-source-line="119" id="lnk71"><path d="M57.75,1541.41 C65.29,1634.48 85.09,1879.47 101.27,2084 C102.62,2101.11 102.26,2224.83 113.27,2238 C130.52,2258.64 150.6957,2268.4956 176.7957,2274.3556" fill="none" id="User-to-UC_S4MODIFY" style="stroke:#333333;stroke-width:1;"/><polygon fill="#333333" points="182.65,2275.67,174.7449,2269.7956,177.7715,2274.5747,172.9923,2277.6012,182.65,2275.67" style="stroke:#333333;stroke-width:1;"/></g><!--link User to UC_S4DIAGRAM--><g class="link" data-entity-1="ent0002" data-entity-2="ent0033" data-link-type="dependency" data-source-line="120" id="lnk72"><path d="M57.5,1541.41 C67.88,1679.2 103.34,2141.2 113.27,2153 C131.91,2175.16 154.739,2185.3612 182.739,2191.0212" fill="none" id="User-to-UC_S4DIAGRAM" style="stroke:#333333;stroke-width:1;"/><polygon fill="#333333" points="188.62,2192.21,180.591,2186.5061,183.7191,2191.2193,179.0059,2194.3475,188.62,2192.21" style="stroke:#333333;stroke-width:1;"/></g><!--link User to UC_S4CONFIRM--><g class="link" data-entity-1="ent0002" data-entity-2="ent0034" data-link-type="dependency" data-source-line="121" id="lnk73"><path d="M54.18,1541.54 C53.63,1650.31 57.21,1956.99 113.27,2037 C136.59,2070.29 172.3219,2088.3108 207.2219,2099.8208" fill="none" id="User-to-UC_S4CONFIRM" style="stroke:#333333;stroke-width:1;"/><polygon fill="#333333" points="212.92,2101.7,205.6257,2095.0824,208.1716,2100.134,203.12,2102.6799,212.92,2101.7" style="stroke:#333333;stroke-width:1;"/></g><!--link User to UC_S5GEN--><g class="link" data-entity-1="ent0002" data-entity-2="ent0036" data-link-type="dependency" data-source-line="124" id="lnk74"><path d="M54.09,1541.47 C53.52,1640.78 57.46,1902.29 113.27,1964 C132.33,1985.08 154.8747,1994.3552 182.5447,1999.0552" fill="none" id="User-to-UC_S5GEN" style="stroke:#333333;stroke-width:1;"/><polygon fill="#333333" points="188.46,2000.06,180.2569,1994.6093,183.5306,1999.2227,178.9172,2002.4964,188.46,2000.06" style="stroke:#333333;stroke-width:1;"/></g><!--link User to UC_S5EDIT--><g class="link" data-entity-1="ent0002" data-entity-2="ent0037" data-link-type="dependency" data-source-line="125" id="lnk75"><path d="M55.53,1541.5 C58.29,1626.78 69.42,1827.93 113.27,1877 C137.97,1904.65 172.3127,1914.9153 206.3227,1918.9953" fill="none" id="User-to-UC_S5EDIT" style="stroke:#333333;stroke-width:1;"/><polygon fill="#333333" points="212.28,1919.71,203.8205,1914.6665,207.3156,1919.1144,202.8676,1922.6095,212.28,1919.71" style="stroke:#333333;stroke-width:1;"/></g><!--link User to UC_S5APPROVE--><g class="link" data-entity-1="ent0002" data-entity-2="ent0038" data-link-type="dependency" data-source-line="126" id="lnk76"><path d="M56.82,1541.56 C61.8,1615.12 76.53,1771.54 113.27,1809 C136.27,1832.46 165.1782,1841.089 196.5282,1844.139" fill="none" id="User-to-UC_S5APPROVE" style="stroke:#333333;stroke-width:1;"/><polygon fill="#333333" points="202.5,1844.72,193.9296,1839.8673,197.5235,1844.2358,193.155,1847.8297,202.5,1844.72" style="stroke:#333333;stroke-width:1;"/></g><!--link User to UC_S5CONFIRM--><g class="link" data-entity-1="ent0002" data-entity-2="ent0039" data-link-type="dependency" data-source-line="127" id="lnk77"><path d="M57.24,1541.43 C62,1583.82 75.42,1651.88 113.27,1696 C141.01,1728.34 179.7157,1746.3298 214.7657,1757.7598" fill="none" id="User-to-UC_S5CONFIRM" style="stroke:#333333;stroke-width:1;"/><polygon fill="#333333" points="220.47,1759.62,213.1536,1753.0268,215.7164,1758.0698,210.6733,1760.6326,220.47,1759.62" style="stroke:#333333;stroke-width:1;"/></g><!--link User to UC_S6GEN--><g class="link" data-entity-1="ent0002" data-entity-2="ent0041" data-link-type="dependency" data-source-line="130" id="lnk78"><path d="M54.84,1464.4 C56.07,1363.3 64,1093.66 113.27,1022 C135.31,989.94 167.7988,971.2068 201.3188,958.1568" fill="none" id="User-to-UC_S6GEN" style="stroke:#333333;stroke-width:1;"/><polygon fill="#333333" points="206.91,955.98,197.072,955.5177,202.2507,957.794,199.9744,962.9726,206.91,955.98" style="stroke:#333333;stroke-width:1;"/></g><!--link User to UC_S6EDIT--><g class="link" data-entity-1="ent0002" data-entity-2="ent0042" data-link-type="dependency" data-source-line="131" id="lnk79"><path d="M55.31,1464.6 C58.1,1327.64 70.56,868.62 113.27,820 C134.79,795.49 163.1593,786.5017 194.5393,783.3917" fill="none" id="User-to-UC_S6EDIT" style="stroke:#333333;stroke-width:1;"/><polygon fill="#333333" points="200.51,782.8,191.1594,779.7071,195.5344,783.2931,191.9484,787.6681,200.51,782.8" style="stroke:#333333;stroke-width:1;"/></g><!--link User to UC_S6VALIDATE--><g class="link" data-entity-1="ent0002" data-entity-2="ent0043" data-link-type="dependency" data-source-line="132" id="lnk80"><path d="M54.99,1464.75 C56.68,1319.05 65.99,804.25 113.27,750 C134.23,725.95 161.5643,716.8805 192.3943,713.5705" fill="none" id="User-to-UC_S6VALIDATE" style="stroke:#333333;stroke-width:1;"/><polygon fill="#333333" points="198.36,712.93,188.9844,709.9136,193.3886,713.4637,189.8384,717.8679,198.36,712.93" style="stroke:#333333;stroke-width:1;"/></g><!--link User to UC_S6CONFIRM--><g class="link" data-entity-1="ent0002" data-entity-2="ent0044" data-link-type="dependency" data-source-line="133" id="lnk81"><path d="M55.77,1464.44 C59.85,1337.3 75.62,936.92 113.27,894 C132.29,872.31 155.3278,862.9431 183.4278,858.3731" fill="none" id="User-to-UC_S6CONFIRM" style="stroke:#333333;stroke-width:1;"/><polygon fill="#333333" points="189.35,857.41,179.8246,854.9066,184.4148,858.2126,181.1088,862.8028,189.35,857.41" style="stroke:#333333;stroke-width:1;"/></g><!--link User to UC_S7GEN--><g class="link" data-entity-1="ent0002" data-entity-2="ent0046" data-link-type="dependency" data-source-line="136" id="lnk82"><path d="M58.6,1541.35 C68.02,1634.31 91.67,1879.06 101.27,2084 C102.42,2108.67 97.99,2953.6 113.27,2973 C128.19,2991.96 144.7767,3001.3665 168.1267,3007.4965" fill="none" id="User-to-UC_S7GEN" style="stroke:#333333;stroke-width:1;"/><polygon fill="#333333" points="173.93,3009.02,166.2407,3002.8658,169.0939,3007.7504,164.2093,3010.6036,173.93,3009.02" style="stroke:#333333;stroke-width:1;"/></g><!--link User to UC_S7REPORT--><g class="link" data-entity-1="ent0002" data-entity-2="ent0048" data-link-type="dependency" data-source-line="137" id="lnk83"><path d="M58.59,1541.36 C67.97,1634.31 91.55,1879.06 101.27,2084 C102.34,2106.73 98.87,2885.38 113.27,2903 C134,2928.36 162.4755,2937.4473 194.1455,2940.3773" fill="none" id="User-to-UC_S7REPORT" style="stroke:#333333;stroke-width:1;"/><polygon fill="#333333" points="200.12,2940.93,191.5268,2936.1179,195.1413,2940.4694,190.7898,2944.0839,200.12,2940.93" style="stroke:#333333;stroke-width:1;"/></g><!--link User to UC_S7ZIP--><g class="link" data-entity-1="ent0002" data-entity-2="ent0049" data-link-type="dependency" data-source-line="138" id="lnk84"><path d="M58.55,1541.36 C67.86,1634.31 91.29,1879.08 101.27,2084 C102.21,2103.31 103.03,2763.59 113.27,2780 C134.94,2814.75 170.7129,2833.4977 206.0429,2845.3777" fill="none" id="User-to-UC_S7ZIP" style="stroke:#333333;stroke-width:1;"/><polygon fill="#333333" points="211.73,2847.29,204.4743,2840.6301,206.9908,2845.6964,201.9245,2848.2129,211.73,2847.29" style="stroke:#333333;stroke-width:1;"/></g><!--link AI to UC_S1CHAT--><g class="link" data-entity-1="ent0003" data-entity-2="ent0016" data-link-type="dependency" data-source-line="141" id="lnk85"><path d="M54.08,2178.47 C53.43,2279.13 57.15,2546.91 113.27,2611 C129.66,2629.72 147.4682,2639.0991 171.5582,2645.2791" fill="none" id="AI-to-UC_S1CHAT" style="stroke:#333333;stroke-width:1;"/><polygon fill="#333333" points="177.37,2646.77,169.6463,2640.659,172.5268,2645.5275,167.6583,2648.4081,177.37,2646.77" style="stroke:#333333;stroke-width:1;"/></g><!--link AI to UC_S1PVD--><g class="link" data-entity-1="ent0003" data-entity-2="ent0018" data-link-type="dependency" data-source-line="142" id="lnk86"><path d="M56.2,2178.39 C61.42,2297.61 79.75,2655.77 113.27,2695 C131.42,2716.25 152.9665,2726.2976 180.0165,2732.1676" fill="none" id="AI-to-UC_S1PVD" style="stroke:#333333;stroke-width:1;"/><polygon fill="#333333" points="185.88,2733.44,177.933,2727.6224,180.9937,2732.3797,176.2364,2735.4404,185.88,2733.44" style="stroke:#333333;stroke-width:1;"/></g><!--link AI to UC_S2VIEW--><g class="link" data-entity-1="ent0003" data-entity-2="ent0021" data-link-type="dependency" data-source-line="143" id="lnk87"><path d="M58.12,2101.62 C66.48,2008.61 87.96,1763.74 101.27,1559 C103.01,1532.25 98.88,1340.62 113.27,1318 C134.06,1285.31 166.2764,1266.5546 199.9564,1253.6646" fill="none" id="AI-to-UC_S2VIEW" style="stroke:#333333;stroke-width:1;"/><polygon fill="#333333" points="205.56,1251.52,195.7248,1251.0012,200.8903,1253.3072,198.5843,1258.4727,205.56,1251.52" style="stroke:#333333;stroke-width:1;"/></g><!--link AI to UC_S3GEN--><g class="link" data-entity-1="ent0003" data-entity-2="ent0025" data-link-type="dependency" data-source-line="144" id="lnk88"><path d="M56.39,2101.48 C61.99,1986.18 80.97,1649.5 113.27,1613 C131.27,1592.65 152.0995,1583.3112 178.5795,1578.1812" fill="none" id="AI-to-UC_S3GEN" style="stroke:#333333;stroke-width:1;"/><polygon fill="#333333" points="184.47,1577.04,174.8735,1574.8248,179.5613,1577.991,176.3951,1582.6787,184.47,1577.04" style="stroke:#333333;stroke-width:1;"/></g><!--link AI to UC_S3REGEN--><g class="link" data-entity-1="ent0003" data-entity-2="ent0028" data-link-type="dependency" data-source-line="145" id="lnk89"><path d="M55.89,2101.41 C59.45,2012.59 72.22,1796.9 113.27,1739 C136.8,1705.81 171.9116,1686.7788 206.4316,1674.0288" fill="none" id="AI-to-UC_S3REGEN" style="stroke:#333333;stroke-width:1;"/><polygon fill="#333333" points="212.06,1671.95,202.2316,1671.316,207.3697,1673.6824,205.0034,1678.8205,212.06,1671.95" style="stroke:#333333;stroke-width:1;"/></g><!--link AI to UC_S4GEN--><g class="link" data-entity-1="ent0003" data-entity-2="ent0031" data-link-type="dependency" data-source-line="146" id="lnk90"><path d="M56.55,2178.33 C60.7,2219.55 73.59,2284.24 113.27,2322 C129.34,2337.29 144.5082,2345.5389 165.8782,2352.0189" fill="none" id="AI-to-UC_S4GEN" style="stroke:#333333;stroke-width:1;"/><polygon fill="#333333" points="171.62,2353.76,164.168,2347.3205,166.8351,2352.3091,161.8465,2354.9763,171.62,2353.76" style="stroke:#333333;stroke-width:1;"/></g><!--link AI to UC_S4MODIFY--><g class="link" data-entity-1="ent0003" data-entity-2="ent0032" data-link-type="dependency" data-source-line="147" id="lnk91"><path d="M69.18,2178.55 C78.77,2199.03 93.29,2223 113.27,2238 C135.01,2254.32 156.6981,2262.9519 182.7881,2269.0619" fill="none" id="AI-to-UC_S4MODIFY" style="stroke:#333333;stroke-width:1;"/><polygon fill="#333333" points="188.63,2270.43,180.7792,2264.4832,183.7617,2269.2899,178.955,2272.2724,188.63,2270.43" style="stroke:#333333;stroke-width:1;"/></g><!--link AI to UC_S5GEN--><g class="link" data-entity-1="ent0003" data-entity-2="ent0036" data-link-type="dependency" data-source-line="148" id="lnk92"><path d="M88.49,2101.42 C96.19,2093.8 104.66,2086.24 113.27,2080 C149.44,2053.77 190.1028,2034.3607 223.6028,2020.3807" fill="none" id="AI-to-UC_S5GEN" style="stroke:#333333;stroke-width:1;"/><polygon fill="#333333" points="229.14,2018.07,219.2937,2017.8447,224.5257,2019.9956,222.3747,2025.2276,229.14,2018.07" style="stroke:#333333;stroke-width:1;"/></g><!--link AI to UC_S5EDIT--><g class="link" data-entity-1="ent0003" data-entity-2="ent0037" data-link-type="dependency" data-source-line="149" id="lnk93"><path d="M57.1,2101.45 C61.73,2061.51 75.06,2000 113.27,1964 C139.8,1939 173.3051,1929.0211 206.4351,1924.5011" fill="none" id="AI-to-UC_S5EDIT" style="stroke:#333333;stroke-width:1;"/><polygon fill="#333333" points="212.38,1923.69,202.9219,1920.9433,207.4259,1924.3659,204.0033,1928.8699,212.38,1923.69" style="stroke:#333333;stroke-width:1;"/></g><!--link AI to UC_S6GEN--><g class="link" data-entity-1="ent0003" data-entity-2="ent0041" data-link-type="dependency" data-source-line="150" id="lnk94"><path d="M58.48,2101.64 C67.65,2008.67 90.76,1763.9 101.27,1559 C102.79,1529.2 97.6,1047.4 113.27,1022 C133.53,989.16 165.4934,970.4168 199.1834,957.5768" fill="none" id="AI-to-UC_S6GEN" style="stroke:#333333;stroke-width:1;"/><polygon fill="#333333" points="204.79,955.44,194.9556,954.9075,200.1178,957.2207,197.8046,962.3829,204.79,955.44" style="stroke:#333333;stroke-width:1;"/></g><!--link AI to UC_S7GEN--><g class="link" data-entity-1="ent0003" data-entity-2="ent0046" data-link-type="dependency" data-source-line="151" id="lnk95"><path d="M54.74,2178.48 C55.52,2334.08 61.89,2911.43 113.27,2973 C128.72,2991.53 145.4967,3000.7865 168.8467,3006.9165" fill="none" id="AI-to-UC_S7GEN" style="stroke:#333333;stroke-width:1;"/><polygon fill="#333333" points="174.65,3008.44,166.9607,3002.2858,169.8139,3007.1704,164.9293,3010.0236,174.65,3008.44" style="stroke:#333333;stroke-width:1;"/></g><!--link AI to UC_S7TEST--><g class="link" data-entity-1="ent0003" data-entity-2="ent0047" data-link-type="dependency" data-source-line="152" id="lnk96"><path d="M54.44,2178.6 C53.97,2343.98 55.86,2987.39 113.27,3055 C131.66,3076.66 154.0519,3086.0922 181.7919,3090.7222" fill="none" id="AI-to-UC_S7TEST" style="stroke:#333333;stroke-width:1;"/><polygon fill="#333333" points="187.71,3091.71,179.4913,3086.2829,182.7782,3090.8869,178.1743,3094.1738,187.71,3091.71" style="stroke:#333333;stroke-width:1;"/></g><?plantuml-src ZLVRRkCs47ttLn3fGtU13RQxlXL5KK2HP5U57Gcouw8B0mLNecqs2kbITDAWwBztI8aMQKdUq2_Xw0ndvl1mo9IFb1snm4_eAyuUzuAVMExpWWlqtSnJlq5vHkHaXq-5d74cQyWFUbWGd4akhW5E9SbmITu0kUCY9w86ZVJe0BMIriFEI0Z-KdySwd6PhXEe1Jb21Bnti_bHZmvGAvkn-hM1ryfdN7xpUtVPBPITiwV7O52GdKII8q7t1uboAaWcAMU3WUO2tJoKHDmWN2BrXp7E1VyRUH5wjrWit-klNZGOA5VCzWL1DyjDCkDYJz3gjPJawGRzEnWW61R4Eya3OP9cMCLJ25IFUY_HJKhs5Dm5yh8CYfDL7lwVQJXlWnTyJvb1BE9vTD_6F1npB0bA1D_HWXXmaiQpQ16suHjANYx1coZytNRuhrKOEFm5CxJ43BRsYQYyEuhp1QbpKMYpl9-6tZg40B_rfECLXV4fpzL6gtMtItmax394d8JttUY05AITKX0kpl1sjIi9HQ9Fw2SKq3BZpqIyTfTxm1AzK7a0gMpPkpCOHGns-1bAUsy2hZxvlthhdlfJWdFAI5cYLSO5QNnMVfnsxE6SC29gelDJ9hTiGqiG70fuTgesnwoGR8AsFxXbXEHmHBRidlmZaIxOSafZFmo3g-ny1dPciDidGL10TfJHNibNUnpTchJpBGkFD2iHPhbPuxplgyzAZUr5rdolejTmM87XhmN9FmBf-e_6VntFvrtAzpdRKV7KBB42QMHLriRNZ-zdKRgyMlaGAbVDgU3xpdBFkwEw2r3B1RNA6yx3ZaCSvbHgw2kQKLBa5ZuCeWxTB45ebOCIdi3Gy3wYkaAIDx8RBkDDsDc5J9Rr8bh688odOwEU8JIbhcmDasSM3Fujz8s0Faza1ohXoqcf_Hg7DX8gNPFieDIQFNv0NXAL7r1mrnGxwinsoNEwUxrOgQlSqJ8EejaVFG8Eqq095cIZsp-q1ho7MwZPgL4GUVFKM_RpvPPjtDv2sXX8UuXKmfBBroDbtv9U1Ar44CAQzCPNXAUXtQICk_Nd7Oz2Ir2xDcWlWUQnkNBw8BE0b7Hl-Ro5W0aGiCJwuamApAvNVtUYHQvnIZAuV0ITpE2-GmcMXxBHowIV4kK5YKfCYuR2IJSN6rnGVGV3xKXtf6p8csoyHHJ0vTVFXrEKSNiB8rDWnESvj4JrABbEo8gVH4OqVCiK4qrDqquEpfvhA0VvOBCyrk6gxoRJy9GSkMX8cAPX4gST7W5_OGN7kRcSj-mBFJPkNwAa9W0e-BxgfZ_V_eBK8skWPxSmgvzEzhnwADaMyxYnRVQZnrw-_THntAp7Z1FJF5Tiu_bLOXlDqyEEMJyu75pzOd1DrOF0jQah_i9Itz_j49zTP7NNkgRw-dIDHf3j5OSkKbzlhaKV6jUaBoNNL5qrhgq_wiX5Zbg-ffUxHjEXNMj_cB6B7BV2ZDl5dLkWQ-qFCd6HarQGIJj8qrXSSt-KgOkSjgAOO-eQrI64nU3_8igUUV5S7GYOkYgr3KgFrhpIc6NG4h7drTPRbj7blDvCopI-W5GROHac5u3fvLnriVy1?></g></svg>